<svg xmlns="http://www.w3.org/2000/svg" viewBox="0 0 195.4 193.22"><defs><style>.cls-1{fill:#e2ae7f;}</style></defs><title>Chicken</title><g id="Layer_2" data-name="Layer 2"><g id="Chicken"><rect class="cls-1" x="9.84" y="130.52" width="22.16" height="31.12" rx="8.92" ry="8.92" transform="translate(-101.23 63.28) rotate(-47.72)"/><rect class="cls-1" x="4.21" y="71.45" width="22.16" height="31.12" rx="8.92" ry="8.92" transform="translate(-59.37 39.78) rotate(-47.72)"/><rect class="cls-1" x="36.66" y="162.67" width="22.16" height="31.12" rx="8.92" ry="8.92" transform="translate(-116.24 93.64) rotate(-47.72)"/><rect class="cls-1" x="98.78" y="94.35" width="22.16" height="31.12" rx="8.92" ry="8.92" transform="translate(-45.37 117.25) rotate(-47.72)"/><rect class="cls-1" x="51.95" y="43.13" width="22.16" height="31.12" rx="8.92" ry="8.92" transform="translate(-22.8 65.84) rotate(-47.72)"/><rect class="cls-1" x="118.42" y="56.05" width="22.16" height="31.12" rx="8.92" ry="8.92" transform="translate(182.36 209.84) rotate(-139.87)"/><rect class="cls-1" x="67.38" y="128.89" width="22.16" height="31.12" rx="8.92" ry="8.92" transform="translate(45.34 305.46) rotate(-139.87)"/><rect class="cls-1" x="169.47" y="130.52" width="22.16" height="31.12" rx="8.92" ry="8.92" transform="translate(224.44 374.14) rotate(-139.87)"/><rect class="cls-1" x="169.47" y="81.89" width="22.16" height="31.12" rx="8.92" ry="8.92" transform="translate(255.78 288.34) rotate(-139.87)"/><rect class="cls-1" x="127.76" y="147.27" width="22.16" height="31.12" rx="8.92" ry="8.92" transform="translate(140.04 376.82) rotate(-139.87)"/><rect class="cls-1" x="13.63" y="28.14" width="22.16" height="31.12" rx="8.92" ry="8.92" transform="translate(27.16 -6.45) rotate(32.27)"/><rect class="cls-1" x="51.95" y="-2.29" width="22.16" height="31.12" rx="8.92" ry="8.92" transform="translate(53.44 -50.42) rotate(69.55)"/><rect class="cls-1" x="98.78" y="6.43" width="22.16" height="31.12" rx="8.92" ry="8.92" transform="translate(92.08 -88.62) rotate(69.55)"/><rect class="cls-1" x="154.93" y="19.1" width="22.16" height="31.12" rx="8.92" ry="8.92" transform="translate(140.47 -133) rotate(69.55)"/></g></g></svg>