<svg xmlns="http://www.w3.org/2000/svg" viewBox="0 0 219.3 219.02"><defs><style>.cls-1{fill:#e9e340;}</style></defs><title>Pineapple</title><g id="Layer_2" data-name="Layer 2"><g id="Pineapple"><path class="cls-1" d="M31.43,56.62q4-17.44,7.93-34.9L55.71,21q2.53,15.41,5,30.8Z"/><path class="cls-1" d="M60.76,17.62,91.93,0l11.5,11.63Q93.74,23.87,84,36.09Z"/><path class="cls-1" d="M21.66,56.62,34.57,90l-13.18,9.7L0,77Z"/><path class="cls-1" d="M2.62,145q4-17.46,7.93-34.91l16.35-.69q2.54,15.4,5.05,30.81Z"/><path class="cls-1" d="M34.57,105q4-17.46,7.93-34.91l16.35-.69q2.53,15.4,5,30.81Z"/><path class="cls-1" d="M67.43,82.29q4-17.46,7.94-34.91l16.35-.68,5,30.8Z"/><path class="cls-1" d="M116.81,75.84q4-17.45,7.93-34.91l16.35-.68q2.53,15.41,5,30.8Z"/><path class="cls-1" d="M146.14,36.84l31.17-17.62,11.5,11.63q-9.69,12.24-19.39,24.46Z"/><path class="cls-1" d="M107,75.84,120,109.23l-13.18,9.7L85.38,96.2Z"/><path class="cls-1" d="M49.24,146.38q4-17.46,7.93-34.91l16.35-.68q2.52,15.39,5,30.8Z"/><path class="cls-1" d="M120,124.18q4-17.46,7.93-34.91l16.35-.69q2.53,15.4,5.05,30.8Z"/><path class="cls-1" d="M152.81,101.51q4-17.46,7.94-34.91l16.35-.68q2.52,15.39,5.05,30.8Z"/><path class="cls-1" d="M113.83,149.42,142.53,128l12.88,10.09q-8.08,13.35-16.16,26.71Z"/><path class="cls-1" d="M101.78,173.81l35.14,6.84,1.2,16.32-30.63,6Z"/><path class="cls-1" d="M85.05,185.24,73.18,219l-16.32-1.18-1.5-31.18Z"/><path class="cls-1" d="M13.78,174.64l28.7-21.39,12.88,10.09L39.2,190.05Z"/><path class="cls-1" d="M64.26,166.35,93,145l12.88,10.09L89.68,181.76Z"/><path class="cls-1" d="M139.84,174.64l28.7-21.39,12.88,10.09q-8.08,13.35-16.16,26.71Z"/><path class="cls-1" d="M205.23,52.39q6.45,16.7,12.91,33.39L205,95.47,183.57,72.74Z"/><path class="cls-1" d="M160.63,145.82q4-17.44,7.93-34.91l16.35-.68q2.53,15.4,5.05,30.8Z"/><path class="cls-1" d="M190,162.75q4-17.44,7.94-34.9l16.35-.69q2.52,15.41,5.05,30.8Z"/><path class="cls-1" d="M116.81,37q4-17.46,7.93-34.91l16.35-.69q2.53,15.41,5,30.8Z"/></g></g></svg>