<svg xmlns="http://www.w3.org/2000/svg" xmlns:xlink="http://www.w3.org/1999/xlink" viewBox="0 0 225.42 214.88"><defs><style>.cls-1,.cls-4{fill:none;}.cls-2{clip-path:url(#clip-path);}.cls-3{fill:#1d1d1b;}.cls-4{stroke:#1d1d1b;stroke-miterlimit:10;stroke-width:2px;}.cls-5{clip-path:url(#clip-path-3);}.cls-6{clip-path:url(#clip-path-5);}.cls-7{clip-path:url(#clip-path-6);}.cls-8{clip-path:url(#clip-path-7);}.cls-9{clip-path:url(#clip-path-8);}.cls-10{clip-path:url(#clip-path-9);}.cls-11{clip-path:url(#clip-path-10);}.cls-12{clip-path:url(#clip-path-11);}.cls-13{clip-path:url(#clip-path-12);}.cls-14{clip-path:url(#clip-path-13);}.cls-15{clip-path:url(#clip-path-15);}.cls-16{clip-path:url(#clip-path-17);}.cls-17{clip-path:url(#clip-path-18);}.cls-18{clip-path:url(#clip-path-19);}.cls-19{clip-path:url(#clip-path-20);}.cls-20{clip-path:url(#clip-path-21);}.cls-21{clip-path:url(#clip-path-22);}.cls-22{clip-path:url(#clip-path-23);}.cls-23{clip-path:url(#clip-path-25);}.cls-24{clip-path:url(#clip-path-26);}.cls-25{clip-path:url(#clip-path-27);}.cls-26{clip-path:url(#clip-path-29);}.cls-27{clip-path:url(#clip-path-31);}.cls-28{clip-path:url(#clip-path-32);}.cls-29{clip-path:url(#clip-path-33);}.cls-30{clip-path:url(#clip-path-35);}.cls-31{clip-path:url(#clip-path-37);}.cls-32{clip-path:url(#clip-path-39);}.cls-33{clip-path:url(#clip-path-41);}.cls-34{clip-path:url(#clip-path-43);}.cls-35{clip-path:url(#clip-path-45);}.cls-36{clip-path:url(#clip-path-47);}.cls-37{clip-path:url(#clip-path-49);}.cls-38{clip-path:url(#clip-path-51);}.cls-39{clip-path:url(#clip-path-52);}.cls-40{clip-path:url(#clip-path-53);}.cls-41{clip-path:url(#clip-path-55);}.cls-42{clip-path:url(#clip-path-57);}.cls-43{clip-path:url(#clip-path-58);}.cls-44{clip-path:url(#clip-path-59);}.cls-45{clip-path:url(#clip-path-61);}.cls-46{clip-path:url(#clip-path-63);}.cls-47{clip-path:url(#clip-path-64);}.cls-48{clip-path:url(#clip-path-65);}.cls-49{clip-path:url(#clip-path-67);}.cls-50{clip-path:url(#clip-path-69);}.cls-51{clip-path:url(#clip-path-71);}.cls-52{clip-path:url(#clip-path-72);}.cls-53{clip-path:url(#clip-path-73);}.cls-54{clip-path:url(#clip-path-75);}.cls-55{clip-path:url(#clip-path-77);}.cls-56{clip-path:url(#clip-path-79);}.cls-57{clip-path:url(#clip-path-81);}.cls-58{clip-path:url(#clip-path-82);}.cls-59{clip-path:url(#clip-path-83);}.cls-60{clip-path:url(#clip-path-84);}.cls-61{clip-path:url(#clip-path-85);}.cls-62{clip-path:url(#clip-path-87);}.cls-63{clip-path:url(#clip-path-89);}</style><clipPath id="clip-path" transform="translate(-4.74 -4.68)"><rect class="cls-1" x="30.52" y="32.93" width="23.07" height="23.07"/></clipPath><clipPath id="clip-path-3" transform="translate(-4.74 -4.68)"><rect class="cls-1" x="10.18" y="56" width="23.07" height="23.07"/></clipPath><clipPath id="clip-path-5" transform="translate(-4.74 -4.68)"><rect class="cls-1" x="39.98" y="58.6" width="23.07" height="23.07"/></clipPath><clipPath id="clip-path-6" transform="translate(-4.74 -4.68)"><rect class="cls-1" x="39.98" y="58.6" width="23.07" height="23.07"/></clipPath><clipPath id="clip-path-7" transform="translate(-4.74 -4.68)"><rect class="cls-1" x="56.85" y="38.6" width="23.07" height="23.07"/></clipPath><clipPath id="clip-path-8" transform="translate(-4.74 -4.68)"><rect class="cls-1" x="56.85" y="38.6" width="23.07" height="23.07"/></clipPath><clipPath id="clip-path-9" transform="translate(-4.74 -4.68)"><rect class="cls-1" x="56.85" y="9.86" width="23.07" height="23.07"/></clipPath><clipPath id="clip-path-10" transform="translate(-4.74 -4.68)"><rect class="cls-1" x="56.85" y="9.86" width="23.07" height="23.07"/></clipPath><clipPath id="clip-path-11" transform="translate(-4.74 -4.68)"><rect class="cls-1" x="35.49" y="89.07" width="23.07" height="23.07" transform="matrix(0.75, -0.66, 0.66, 0.75, -54.69, 56.04)"/></clipPath><clipPath id="clip-path-12" transform="translate(-4.74 -4.68)"><rect class="cls-1" x="35.49" y="89.07" width="23.07" height="23.07" transform="translate(-54.69 56.04) rotate(-41.29)"/></clipPath><clipPath id="clip-path-13" transform="translate(-4.74 -4.68)"><rect class="cls-1" x="4.74" y="89.01" width="23.07" height="23.07" transform="translate(-62.3 35.73) rotate(-41.29)"/></clipPath><clipPath id="clip-path-15" transform="translate(-4.74 -4.68)"><rect class="cls-1" x="22.45" y="113.11" width="23.07" height="23.07" transform="translate(-73.8 53.41) rotate(-41.29)"/></clipPath><clipPath id="clip-path-17" transform="translate(-4.74 -4.68)"><rect class="cls-1" x="48.61" y="112.59" width="23.07" height="23.07" transform="matrix(0.75, -0.66, 0.66, 0.75, -66.95, 70.54)"/></clipPath><clipPath id="clip-path-18" transform="translate(-4.74 -4.68)"><rect class="cls-1" x="48.61" y="112.59" width="23.07" height="23.07" transform="translate(-66.95 70.54) rotate(-41.29)"/></clipPath><clipPath id="clip-path-19" transform="translate(-4.74 -4.68)"><rect class="cls-1" x="65.54" y="89.07" width="23.07" height="23.07" transform="matrix(0.75, -0.66, 0.66, 0.75, -47.22, 75.87)"/></clipPath><clipPath id="clip-path-20" transform="translate(-4.74 -4.68)"><rect class="cls-1" x="65.54" y="89.07" width="23.07" height="23.07" transform="translate(-47.22 75.87) rotate(-41.29)"/></clipPath><clipPath id="clip-path-21" transform="translate(-4.74 -4.68)"><rect class="cls-1" x="47.27" y="143.87" width="23.07" height="23.07" transform="translate(-95.52 93.81) rotate(-47.52)"/></clipPath><clipPath id="clip-path-22" transform="translate(-4.74 -4.68)"><rect class="cls-1" x="47.27" y="143.87" width="23.07" height="23.07" transform="translate(-95.52 93.81) rotate(-47.52)"/></clipPath><clipPath id="clip-path-23" transform="translate(-4.74 -4.68)"><rect class="cls-1" x="16.69" y="147.15" width="23.07" height="23.07" transform="translate(-107.86 72.33) rotate(-47.52)"/></clipPath><clipPath id="clip-path-25" transform="translate(-4.74 -4.68)"><rect class="cls-1" x="36.91" y="169.19" width="23.07" height="23.07" transform="translate(-117.55 94.4) rotate(-47.52)"/></clipPath><clipPath id="clip-path-26" transform="translate(-4.74 -4.68)"><rect class="cls-1" x="36.91" y="169.19" width="23.07" height="23.07" transform="translate(-117.55 94.4) rotate(-47.52)"/></clipPath><clipPath id="clip-path-27" transform="translate(-4.74 -4.68)"><rect class="cls-1" x="62.86" y="165.83" width="23.07" height="23.07" transform="translate(-106.65 112.44) rotate(-47.52)"/></clipPath><clipPath id="clip-path-29" transform="translate(-4.74 -4.68)"><rect class="cls-1" x="58.34" y="196.5" width="23.07" height="23.07" transform="translate(-130.74 119.07) rotate(-47.52)"/></clipPath><clipPath id="clip-path-31" transform="translate(-4.74 -4.68)"><rect class="cls-1" x="111.02" y="170.83" width="23.07" height="23.07"/></clipPath><clipPath id="clip-path-32" transform="translate(-4.74 -4.68)"><rect class="cls-1" x="111.02" y="170.83" width="23.07" height="23.07"/></clipPath><clipPath id="clip-path-33" transform="translate(-4.74 -4.68)"><rect class="cls-1" x="90.69" y="193.9" width="23.07" height="23.07"/></clipPath><clipPath id="clip-path-35" transform="translate(-4.74 -4.68)"><rect class="cls-1" x="120.49" y="196.5" width="23.07" height="23.07"/></clipPath><clipPath id="clip-path-37" transform="translate(-4.74 -4.68)"><rect class="cls-1" x="137.36" y="176.5" width="23.07" height="23.07"/></clipPath><clipPath id="clip-path-39" transform="translate(-4.74 -4.68)"><rect class="cls-1" x="137.36" y="147.76" width="23.07" height="23.07"/></clipPath><clipPath id="clip-path-41" transform="translate(-4.74 -4.68)"><rect class="cls-1" x="74.64" y="139.1" width="23.07" height="23.07"/></clipPath><clipPath id="clip-path-43" transform="translate(-4.74 -4.68)"><rect class="cls-1" x="87.69" y="160.16" width="23.07" height="23.07"/></clipPath><clipPath id="clip-path-45" transform="translate(-4.74 -4.68)"><rect class="cls-1" x="129.02" y="120.68" width="23.07" height="23.07"/></clipPath><clipPath id="clip-path-47" transform="translate(-4.74 -4.68)"><rect class="cls-1" x="106" y="139.1" width="23.07" height="23.07"/></clipPath><clipPath id="clip-path-49" transform="translate(-4.74 -4.68)"><rect class="cls-1" x="89.08" y="119.45" width="23.07" height="23.07"/></clipPath><clipPath id="clip-path-51" transform="translate(-4.74 -4.68)"><rect class="cls-1" x="83.11" y="39.17" width="23.07" height="23.07" transform="translate(-10.86 70.65) rotate(-38.89)"/></clipPath><clipPath id="clip-path-52" transform="translate(-4.74 -4.68)"><rect class="cls-1" x="83.11" y="39.17" width="23.07" height="23.07" transform="translate(-10.86 70.65) rotate(-38.89)"/></clipPath><clipPath id="clip-path-53" transform="translate(-4.74 -4.68)"><rect class="cls-1" x="81.76" y="69.89" width="23.07" height="23.07" transform="translate(-30.44 76.61) rotate(-38.89)"/></clipPath><clipPath id="clip-path-55" transform="translate(-4.74 -4.68)"><rect class="cls-1" x="106.59" y="53.21" width="23.07" height="23.07" transform="translate(-14.47 88.5) rotate(-38.89)"/></clipPath><clipPath id="clip-path-57" transform="translate(-4.74 -4.68)"><rect class="cls-1" x="107.16" y="27.05" width="23.07" height="23.07" transform="translate(2.08 83.06) rotate(-38.89)"/></clipPath><clipPath id="clip-path-58" transform="translate(-4.74 -4.68)"><rect class="cls-1" x="107.16" y="27.05" width="23.07" height="23.07" transform="translate(2.08 83.06) rotate(-38.89)"/></clipPath><clipPath id="clip-path-59" transform="translate(-4.74 -4.68)"><rect class="cls-1" x="89.13" y="4.68" width="23.07" height="23.07" transform="translate(12.12 66.78) rotate(-38.89)"/></clipPath><clipPath id="clip-path-61" transform="translate(-4.74 -4.68)"><rect class="cls-1" x="129.02" y="66.23" width="23.07" height="23.07"/></clipPath><clipPath id="clip-path-63" transform="translate(-4.74 -4.68)"><rect class="cls-1" x="108.69" y="89.3" width="23.07" height="23.07"/></clipPath><clipPath id="clip-path-64" transform="translate(-4.74 -4.68)"><rect class="cls-1" x="108.69" y="89.3" width="23.07" height="23.07"/></clipPath><clipPath id="clip-path-65" transform="translate(-4.74 -4.68)"><rect class="cls-1" x="138.49" y="91.9" width="23.07" height="23.07"/></clipPath><clipPath id="clip-path-67" transform="translate(-4.74 -4.68)"><rect class="cls-1" x="155.36" y="71.9" width="23.07" height="23.07"/></clipPath><clipPath id="clip-path-69" transform="translate(-4.74 -4.68)"><rect class="cls-1" x="155.36" y="43.17" width="23.07" height="23.07"/></clipPath><clipPath id="clip-path-71" transform="translate(-4.74 -4.68)"><rect class="cls-1" x="180.76" y="95.54" width="23.07" height="23.07"/></clipPath><clipPath id="clip-path-72" transform="translate(-4.74 -4.68)"><rect class="cls-1" x="180.76" y="95.54" width="23.07" height="23.07"/></clipPath><clipPath id="clip-path-73" transform="translate(-4.74 -4.68)"><rect class="cls-1" x="160.42" y="118.61" width="23.07" height="23.07"/></clipPath><clipPath id="clip-path-75" transform="translate(-4.74 -4.68)"><rect class="cls-1" x="190.22" y="121.21" width="23.07" height="23.07"/></clipPath><clipPath id="clip-path-77" transform="translate(-4.74 -4.68)"><rect class="cls-1" x="207.09" y="101.21" width="23.07" height="23.07"/></clipPath><clipPath id="clip-path-79" transform="translate(-4.74 -4.68)"><rect class="cls-1" x="207.09" y="72.47" width="23.07" height="23.07"/></clipPath><clipPath id="clip-path-81" transform="translate(-4.74 -4.68)"><rect class="cls-1" x="166.2" y="151.09" width="23.07" height="23.07"/></clipPath><clipPath id="clip-path-82" transform="translate(-4.74 -4.68)"><rect class="cls-1" x="166.2" y="151.09" width="23.07" height="23.07"/></clipPath><clipPath id="clip-path-83" transform="translate(-4.74 -4.68)"><rect class="cls-1" x="164.15" y="184.97" width="23.07" height="23.07"/></clipPath><clipPath id="clip-path-84" transform="translate(-4.74 -4.68)"><rect class="cls-1" x="164.15" y="184.97" width="23.07" height="23.07"/></clipPath><clipPath id="clip-path-85" transform="translate(-4.74 -4.68)"><rect class="cls-1" x="137.36" y="14.43" width="23.07" height="23.07"/></clipPath><clipPath id="clip-path-87" transform="translate(-4.74 -4.68)"><rect class="cls-1" x="181.22" y="50.13" width="23.07" height="23.07"/></clipPath><clipPath id="clip-path-89" transform="translate(-4.74 -4.68)"><rect class="cls-1" x="202.02" y="146.87" width="23.07" height="23.07"/></clipPath></defs><title>Olives</title><g id="Layer_2" data-name="Layer 2"><g id="Olives"><g id="Artwork_3" data-name="Artwork 3"><g class="cls-2"><g class="cls-2"><path class="cls-3" d="M50.24,37.85a10.53,10.53,0,1,0-1.56,14.8,10.53,10.53,0,0,0,1.56-14.8M37.58,48.08a5.75,5.75,0,1,1,8.15.93,5.79,5.79,0,0,1-8.15-.93" transform="translate(-4.74 -4.68)"/><path class="cls-4" d="M50.24,37.85a10.53,10.53,0,1,0-1.56,14.8A10.53,10.53,0,0,0,50.24,37.85ZM37.58,48.08a5.75,5.75,0,1,1,8.15.93A5.79,5.79,0,0,1,37.58,48.08Z" transform="translate(-4.74 -4.68)"/></g></g></g><g id="Artwork_3-2" data-name="Artwork 3"><g class="cls-5"><g class="cls-5"><path class="cls-3" d="M29.91,60.91a10.54,10.54,0,1,0-1.57,14.81,10.54,10.54,0,0,0,1.57-14.81M17.25,71.15a5.75,5.75,0,1,1,8.14.92,5.8,5.8,0,0,1-8.14-.92" transform="translate(-4.74 -4.68)"/><path class="cls-4" d="M29.91,60.91a10.54,10.54,0,1,0-1.57,14.81A10.54,10.54,0,0,0,29.91,60.91ZM17.25,71.15a5.75,5.75,0,1,1,8.14.92A5.8,5.8,0,0,1,17.25,71.15Z" transform="translate(-4.74 -4.68)"/></g></g></g><g id="Artwork_3-3" data-name="Artwork 3"><g class="cls-6"><g class="cls-7"><path class="cls-3" d="M59.71,63.51a10.54,10.54,0,1,0-1.57,14.81,10.54,10.54,0,0,0,1.57-14.81M47.05,73.75a5.75,5.75,0,1,1,8.14.92,5.8,5.8,0,0,1-8.14-.92" transform="translate(-4.74 -4.68)"/><path class="cls-4" d="M59.71,63.51a10.54,10.54,0,1,0-1.57,14.81A10.54,10.54,0,0,0,59.71,63.51ZM47.05,73.75a5.75,5.75,0,1,1,8.14.92A5.8,5.8,0,0,1,47.05,73.75Z" transform="translate(-4.74 -4.68)"/></g></g></g><g id="Artwork_3-4" data-name="Artwork 3"><g class="cls-8"><g class="cls-9"><path class="cls-3" d="M76.58,43.51A10.54,10.54,0,1,0,75,58.32a10.54,10.54,0,0,0,1.57-14.81M63.92,53.75a5.75,5.75,0,1,1,8.14.92,5.8,5.8,0,0,1-8.14-.92" transform="translate(-4.74 -4.68)"/><path class="cls-4" d="M76.58,43.51A10.54,10.54,0,1,0,75,58.32,10.54,10.54,0,0,0,76.58,43.51ZM63.92,53.75a5.75,5.75,0,1,1,8.14.92A5.8,5.8,0,0,1,63.92,53.75Z" transform="translate(-4.74 -4.68)"/></g></g></g><g id="Artwork_3-5" data-name="Artwork 3"><g class="cls-10"><g class="cls-11"><path class="cls-3" d="M76.58,14.78A10.54,10.54,0,1,0,75,29.59a10.54,10.54,0,0,0,1.57-14.81M63.92,25a5.75,5.75,0,1,1,8.14.93A5.79,5.79,0,0,1,63.92,25" transform="translate(-4.74 -4.68)"/><path class="cls-4" d="M76.58,14.78A10.54,10.54,0,1,0,75,29.59,10.54,10.54,0,0,0,76.58,14.78ZM63.92,25a5.75,5.75,0,1,1,8.14.93A5.79,5.79,0,0,1,63.92,25Z" transform="translate(-4.74 -4.68)"/></g></g></g><g id="Artwork_3-6" data-name="Artwork 3"><g class="cls-12"><g class="cls-13"><path class="cls-3" d="M57.41,102.39A10.54,10.54,0,1,0,45.25,111a10.54,10.54,0,0,0,12.16-8.59m-16-2.76A5.75,5.75,0,1,1,46,106.36a5.8,5.8,0,0,1-4.68-6.73" transform="translate(-4.74 -4.68)"/><path class="cls-4" d="M57.41,102.39A10.54,10.54,0,1,0,45.25,111,10.54,10.54,0,0,0,57.41,102.39Zm-16-2.76A5.75,5.75,0,1,1,46,106.36,5.8,5.8,0,0,1,41.36,99.63Z" transform="translate(-4.74 -4.68)"/></g></g></g><g id="Artwork_3-7" data-name="Artwork 3"><g class="cls-14"><g class="cls-14"><path class="cls-3" d="M26.66,102.33a10.54,10.54,0,1,0-12.16,8.59,10.54,10.54,0,0,0,12.16-8.59m-16-2.76a5.75,5.75,0,1,1,4.68,6.73,5.8,5.8,0,0,1-4.68-6.73" transform="translate(-4.74 -4.68)"/><path class="cls-4" d="M26.66,102.33a10.54,10.54,0,1,0-12.16,8.59A10.54,10.54,0,0,0,26.66,102.33Zm-16-2.76a5.75,5.75,0,1,1,4.68,6.73A5.8,5.8,0,0,1,10.61,99.57Z" transform="translate(-4.74 -4.68)"/></g></g></g><g id="Artwork_3-8" data-name="Artwork 3"><g class="cls-15"><g class="cls-15"><path class="cls-3" d="M44.37,126.44A10.54,10.54,0,1,0,32.21,135a10.54,10.54,0,0,0,12.16-8.59m-16-2.76A5.75,5.75,0,1,1,33,130.41a5.8,5.8,0,0,1-4.68-6.73" transform="translate(-4.74 -4.68)"/><path class="cls-4" d="M44.37,126.44A10.54,10.54,0,1,0,32.21,135,10.54,10.54,0,0,0,44.37,126.44Zm-16-2.76A5.75,5.75,0,1,1,33,130.41,5.8,5.8,0,0,1,28.32,123.68Z" transform="translate(-4.74 -4.68)"/></g></g></g><g id="Artwork_3-9" data-name="Artwork 3"><g class="cls-16"><g class="cls-17"><path class="cls-3" d="M70.53,125.91a10.54,10.54,0,1,0-12.17,8.6,10.55,10.55,0,0,0,12.17-8.6m-16.05-2.75a5.75,5.75,0,1,1,4.68,6.73,5.78,5.78,0,0,1-4.68-6.73" transform="translate(-4.74 -4.68)"/><path class="cls-4" d="M70.53,125.91a10.54,10.54,0,1,0-12.17,8.6A10.55,10.55,0,0,0,70.53,125.91Zm-16.05-2.75a5.75,5.75,0,1,1,4.68,6.73A5.78,5.78,0,0,1,54.48,123.16Z" transform="translate(-4.74 -4.68)"/></g></g></g><g id="Artwork_3-10" data-name="Artwork 3"><g class="cls-18"><g class="cls-19"><path class="cls-3" d="M87.46,102.39A10.54,10.54,0,1,0,75.3,111a10.53,10.53,0,0,0,12.16-8.59m-16-2.76a5.75,5.75,0,1,1,4.68,6.73,5.8,5.8,0,0,1-4.68-6.73" transform="translate(-4.74 -4.68)"/><path class="cls-4" d="M87.46,102.39A10.54,10.54,0,1,0,75.3,111,10.53,10.53,0,0,0,87.46,102.39Zm-16-2.76a5.75,5.75,0,1,1,4.68,6.73A5.8,5.8,0,0,1,71.41,99.63Z" transform="translate(-4.74 -4.68)"/></g></g></g><g id="Artwork_3-11" data-name="Artwork 3"><g class="cls-20"><g class="cls-21"><path class="cls-3" d="M69.31,156.05a10.53,10.53,0,1,0-11.15,9.86,10.54,10.54,0,0,0,11.15-9.86m-16.25-1a5.75,5.75,0,1,1,5.39,6.18,5.81,5.81,0,0,1-5.39-6.18" transform="translate(-4.74 -4.68)"/><path class="cls-4" d="M69.31,156.05a10.53,10.53,0,1,0-11.15,9.86A10.54,10.54,0,0,0,69.31,156.05Zm-16.25-1a5.75,5.75,0,1,1,5.39,6.18A5.81,5.81,0,0,1,53.06,155.05Z" transform="translate(-4.74 -4.68)"/></g></g></g><g id="Artwork_3-12" data-name="Artwork 3"><g class="cls-22"><g class="cls-22"><path class="cls-3" d="M38.74,159.33a10.53,10.53,0,1,0-11.16,9.86,10.54,10.54,0,0,0,11.16-9.86m-16.25-1a5.75,5.75,0,1,1,5.38,6.18,5.8,5.8,0,0,1-5.38-6.18" transform="translate(-4.74 -4.68)"/><path class="cls-4" d="M38.74,159.33a10.53,10.53,0,1,0-11.16,9.86A10.54,10.54,0,0,0,38.74,159.33Zm-16.25-1a5.75,5.75,0,1,1,5.38,6.18A5.8,5.8,0,0,1,22.49,158.33Z" transform="translate(-4.74 -4.68)"/></g></g></g><g id="Artwork_3-13" data-name="Artwork 3"><g class="cls-23"><g class="cls-24"><path class="cls-3" d="M59,181.37a10.53,10.53,0,1,0-11.16,9.87A10.52,10.52,0,0,0,59,181.37m-16.25-1a5.75,5.75,0,1,1,5.38,6.19,5.79,5.79,0,0,1-5.38-6.19" transform="translate(-4.74 -4.68)"/><path class="cls-4" d="M59,181.37a10.53,10.53,0,1,0-11.16,9.87A10.52,10.52,0,0,0,59,181.37Zm-16.25-1a5.75,5.75,0,1,1,5.38,6.19A5.79,5.79,0,0,1,42.71,180.37Z" transform="translate(-4.74 -4.68)"/></g></g></g><g id="Artwork_3-14" data-name="Artwork 3"><g class="cls-25"><g class="cls-25"><path class="cls-3" d="M84.91,178a10.53,10.53,0,1,0-11.16,9.87A10.54,10.54,0,0,0,84.91,178m-16.25-1A5.75,5.75,0,1,1,74,183.2,5.79,5.79,0,0,1,68.66,177" transform="translate(-4.74 -4.68)"/><path class="cls-4" d="M84.91,178a10.53,10.53,0,1,0-11.16,9.87A10.54,10.54,0,0,0,84.91,178Zm-16.25-1A5.75,5.75,0,1,1,74,183.2,5.79,5.79,0,0,1,68.66,177Z" transform="translate(-4.74 -4.68)"/></g></g></g><g id="Artwork_3-15" data-name="Artwork 3"><g class="cls-26"><g class="cls-26"><path class="cls-3" d="M80.39,208.68a10.53,10.53,0,1,0-11.16,9.87,10.53,10.53,0,0,0,11.16-9.87m-16.25-1a5.75,5.75,0,1,1,5.38,6.19,5.79,5.79,0,0,1-5.38-6.19" transform="translate(-4.74 -4.68)"/><path class="cls-4" d="M80.39,208.68a10.53,10.53,0,1,0-11.16,9.87A10.53,10.53,0,0,0,80.39,208.68Zm-16.25-1a5.75,5.75,0,1,1,5.38,6.19A5.79,5.79,0,0,1,64.14,207.68Z" transform="translate(-4.74 -4.68)"/></g></g></g><g id="Artwork_3-16" data-name="Artwork 3"><g class="cls-27"><g class="cls-28"><path class="cls-3" d="M130.75,175.75a10.53,10.53,0,1,0-1.57,14.81,10.53,10.53,0,0,0,1.57-14.81M118.09,186a5.75,5.75,0,1,1,8.14.93,5.79,5.79,0,0,1-8.14-.93" transform="translate(-4.74 -4.68)"/><path class="cls-4" d="M130.75,175.75a10.53,10.53,0,1,0-1.57,14.81A10.53,10.53,0,0,0,130.75,175.75ZM118.09,186a5.75,5.75,0,1,1,8.14.93A5.79,5.79,0,0,1,118.09,186Z" transform="translate(-4.74 -4.68)"/></g></g></g><g id="Artwork_3-17" data-name="Artwork 3"><g class="cls-29"><g class="cls-29"><path class="cls-3" d="M110.42,198.81a10.54,10.54,0,1,0-1.57,14.81,10.55,10.55,0,0,0,1.57-14.81M97.76,209.05a5.75,5.75,0,1,1,8.14.93,5.79,5.79,0,0,1-8.14-.93" transform="translate(-4.74 -4.68)"/><path class="cls-4" d="M110.42,198.81a10.54,10.54,0,1,0-1.57,14.81A10.55,10.55,0,0,0,110.42,198.81ZM97.76,209.05a5.75,5.75,0,1,1,8.14.93A5.79,5.79,0,0,1,97.76,209.05Z" transform="translate(-4.74 -4.68)"/></g></g></g><g id="Artwork_3-18" data-name="Artwork 3"><g class="cls-30"><g class="cls-30"><path class="cls-3" d="M140.22,201.41a10.54,10.54,0,1,0-1.57,14.81,10.54,10.54,0,0,0,1.57-14.81m-12.66,10.24a5.75,5.75,0,1,1,8.14.92,5.8,5.8,0,0,1-8.14-.92" transform="translate(-4.74 -4.68)"/><path class="cls-4" d="M140.22,201.41a10.54,10.54,0,1,0-1.57,14.81A10.54,10.54,0,0,0,140.22,201.41Zm-12.66,10.24a5.75,5.75,0,1,1,8.14.92A5.8,5.8,0,0,1,127.56,211.65Z" transform="translate(-4.74 -4.68)"/></g></g></g><g id="Artwork_3-19" data-name="Artwork 3"><g class="cls-31"><g class="cls-31"><path class="cls-3" d="M157.08,181.41a10.53,10.53,0,1,0-1.56,14.81,10.53,10.53,0,0,0,1.56-14.81m-12.66,10.24a5.75,5.75,0,1,1,8.15.92,5.8,5.8,0,0,1-8.15-.92" transform="translate(-4.74 -4.68)"/><path class="cls-4" d="M157.08,181.41a10.53,10.53,0,1,0-1.56,14.81A10.53,10.53,0,0,0,157.08,181.41Zm-12.66,10.24a5.75,5.75,0,1,1,8.15.92A5.8,5.8,0,0,1,144.42,191.65Z" transform="translate(-4.74 -4.68)"/></g></g></g><g id="Artwork_3-20" data-name="Artwork 3"><g class="cls-32"><g class="cls-32"><path class="cls-3" d="M157.08,152.68a10.53,10.53,0,1,0-1.56,14.81,10.53,10.53,0,0,0,1.56-14.81m-12.66,10.23a5.75,5.75,0,1,1,8.15.93,5.79,5.79,0,0,1-8.15-.93" transform="translate(-4.74 -4.68)"/><path class="cls-4" d="M157.08,152.68a10.53,10.53,0,1,0-1.56,14.81A10.53,10.53,0,0,0,157.08,152.68Zm-12.66,10.23a5.75,5.75,0,1,1,8.15.93A5.79,5.79,0,0,1,144.42,162.91Z" transform="translate(-4.74 -4.68)"/></g></g></g><g id="Artwork_3-21" data-name="Artwork 3"><g class="cls-33"><g class="cls-33"><path class="cls-3" d="M94.37,144a10.54,10.54,0,1,0-1.57,14.81A10.54,10.54,0,0,0,94.37,144M81.71,154.25a5.75,5.75,0,1,1,8.14.93,5.79,5.79,0,0,1-8.14-.93" transform="translate(-4.74 -4.68)"/><path class="cls-4" d="M94.37,144a10.54,10.54,0,1,0-1.57,14.81A10.54,10.54,0,0,0,94.37,144ZM81.71,154.25a5.75,5.75,0,1,1,8.14.93A5.79,5.79,0,0,1,81.71,154.25Z" transform="translate(-4.74 -4.68)"/></g></g></g><g id="Artwork_3-22" data-name="Artwork 3"><g class="cls-34"><g class="cls-34"><path class="cls-3" d="M107.42,165.07a10.54,10.54,0,1,0-1.57,14.81,10.55,10.55,0,0,0,1.57-14.81M94.76,175.31a5.75,5.75,0,1,1,8.14.93,5.79,5.79,0,0,1-8.14-.93" transform="translate(-4.74 -4.68)"/><path class="cls-4" d="M107.42,165.07a10.54,10.54,0,1,0-1.57,14.81A10.55,10.55,0,0,0,107.42,165.07ZM94.76,175.31a5.75,5.75,0,1,1,8.14.93A5.79,5.79,0,0,1,94.76,175.31Z" transform="translate(-4.74 -4.68)"/></g></g></g><g id="Artwork_3-23" data-name="Artwork 3"><g class="cls-35"><g class="cls-35"><path class="cls-3" d="M148.75,125.6a10.53,10.53,0,1,0-1.57,14.8,10.53,10.53,0,0,0,1.57-14.8m-12.66,10.23a5.75,5.75,0,1,1,8.14.93,5.79,5.79,0,0,1-8.14-.93" transform="translate(-4.74 -4.68)"/><path class="cls-4" d="M148.75,125.6a10.53,10.53,0,1,0-1.57,14.8A10.53,10.53,0,0,0,148.75,125.6Zm-12.66,10.23a5.75,5.75,0,1,1,8.14.93A5.79,5.79,0,0,1,136.09,135.83Z" transform="translate(-4.74 -4.68)"/></g></g></g><g id="Artwork_3-24" data-name="Artwork 3"><g class="cls-36"><g class="cls-36"><path class="cls-3" d="M125.72,144a10.53,10.53,0,1,0-1.56,14.81A10.53,10.53,0,0,0,125.72,144m-12.65,10.23a5.75,5.75,0,1,1,8.14.93,5.79,5.79,0,0,1-8.14-.93" transform="translate(-4.74 -4.68)"/><path class="cls-4" d="M125.72,144a10.53,10.53,0,1,0-1.56,14.81A10.53,10.53,0,0,0,125.72,144Zm-12.65,10.23a5.75,5.75,0,1,1,8.14.93A5.79,5.79,0,0,1,113.07,154.25Z" transform="translate(-4.74 -4.68)"/></g></g></g><g id="Artwork_3-25" data-name="Artwork 3"><g class="cls-37"><g class="cls-37"><path class="cls-3" d="M108.81,124.37a10.54,10.54,0,1,0-1.57,14.81,10.54,10.54,0,0,0,1.57-14.81M96.15,134.6a5.75,5.75,0,1,1,8.14.93,5.79,5.79,0,0,1-8.14-.93" transform="translate(-4.74 -4.68)"/><path class="cls-4" d="M108.81,124.37a10.54,10.54,0,1,0-1.57,14.81A10.54,10.54,0,0,0,108.81,124.37ZM96.15,134.6a5.75,5.75,0,1,1,8.14.93A5.79,5.79,0,0,1,96.15,134.6Z" transform="translate(-4.74 -4.68)"/></g></g></g><g id="Artwork_3-26" data-name="Artwork 3"><g class="cls-38"><g class="cls-39"><path class="cls-3" d="M96.87,40.41a10.54,10.54,0,1,0,8.07,12.51,10.53,10.53,0,0,0-8.07-12.51M93.44,56.32a5.75,5.75,0,1,1,6.92-4.39,5.79,5.79,0,0,1-6.92,4.39" transform="translate(-4.74 -4.68)"/><path class="cls-4" d="M96.87,40.41a10.54,10.54,0,1,0,8.07,12.51A10.53,10.53,0,0,0,96.87,40.41ZM93.44,56.32a5.75,5.75,0,1,1,6.92-4.39A5.79,5.79,0,0,1,93.44,56.32Z" transform="translate(-4.74 -4.68)"/></g></g></g><g id="Artwork_3-27" data-name="Artwork 3"><g class="cls-40"><g class="cls-40"><path class="cls-3" d="M95.52,71.13a10.54,10.54,0,1,0,8.08,12.51,10.53,10.53,0,0,0-8.08-12.51M92.09,87A5.75,5.75,0,1,1,99,82.65,5.79,5.79,0,0,1,92.09,87" transform="translate(-4.74 -4.68)"/><path class="cls-4" d="M95.52,71.13a10.54,10.54,0,1,0,8.08,12.51A10.53,10.53,0,0,0,95.52,71.13ZM92.09,87A5.75,5.75,0,1,1,99,82.65,5.79,5.79,0,0,1,92.09,87Z" transform="translate(-4.74 -4.68)"/></g></g></g><g id="Artwork_3-28" data-name="Artwork 3"><g class="cls-41"><g class="cls-41"><path class="cls-3" d="M120.35,54.44A10.54,10.54,0,1,0,128.42,67a10.54,10.54,0,0,0-8.07-12.52m-3.43,15.92A5.75,5.75,0,1,1,123.84,66a5.79,5.79,0,0,1-6.92,4.39" transform="translate(-4.74 -4.68)"/><path class="cls-4" d="M120.35,54.44A10.54,10.54,0,1,0,128.42,67,10.54,10.54,0,0,0,120.35,54.44Zm-3.43,15.92A5.75,5.75,0,1,1,123.84,66,5.79,5.79,0,0,1,116.92,70.36Z" transform="translate(-4.74 -4.68)"/></g></g></g><g id="Artwork_3-29" data-name="Artwork 3"><g class="cls-42"><g class="cls-43"><path class="cls-3" d="M120.92,28.29A10.54,10.54,0,1,0,129,40.8a10.53,10.53,0,0,0-8.08-12.51M117.49,44.2a5.75,5.75,0,1,1,6.92-4.39,5.79,5.79,0,0,1-6.92,4.39" transform="translate(-4.74 -4.68)"/><path class="cls-4" d="M120.92,28.29A10.54,10.54,0,1,0,129,40.8,10.53,10.53,0,0,0,120.92,28.29ZM117.49,44.2a5.75,5.75,0,1,1,6.92-4.39A5.79,5.79,0,0,1,117.49,44.2Z" transform="translate(-4.74 -4.68)"/></g></g></g><g id="Artwork_3-30" data-name="Artwork 3"><g class="cls-44"><g class="cls-44"><path class="cls-3" d="M102.88,5.92A10.54,10.54,0,1,0,111,18.43a10.55,10.55,0,0,0-8.08-12.51M99.45,21.84a5.75,5.75,0,1,1,6.93-4.4,5.8,5.8,0,0,1-6.93,4.4" transform="translate(-4.74 -4.68)"/><path class="cls-4" d="M102.88,5.92A10.54,10.54,0,1,0,111,18.43,10.55,10.55,0,0,0,102.88,5.92ZM99.45,21.84a5.75,5.75,0,1,1,6.93-4.4A5.8,5.8,0,0,1,99.45,21.84Z" transform="translate(-4.74 -4.68)"/></g></g></g><g id="Artwork_3-31" data-name="Artwork 3"><g class="cls-45"><g class="cls-45"><path class="cls-3" d="M148.75,71.15A10.53,10.53,0,1,0,147.18,86a10.53,10.53,0,0,0,1.57-14.81M136.09,81.38a5.75,5.75,0,1,1,8.14.93,5.79,5.79,0,0,1-8.14-.93" transform="translate(-4.74 -4.68)"/><path class="cls-4" d="M148.75,71.15A10.53,10.53,0,1,0,147.18,86,10.53,10.53,0,0,0,148.75,71.15ZM136.09,81.38a5.75,5.75,0,1,1,8.14.93A5.79,5.79,0,0,1,136.09,81.38Z" transform="translate(-4.74 -4.68)"/></g></g></g><g id="Artwork_3-32" data-name="Artwork 3"><g class="cls-46"><g class="cls-47"><path class="cls-3" d="M128.42,94.21A10.54,10.54,0,1,0,126.85,109a10.55,10.55,0,0,0,1.57-14.81m-12.66,10.24a5.75,5.75,0,1,1,8.14.93,5.79,5.79,0,0,1-8.14-.93" transform="translate(-4.74 -4.68)"/><path class="cls-4" d="M128.42,94.21A10.54,10.54,0,1,0,126.85,109,10.55,10.55,0,0,0,128.42,94.21Zm-12.66,10.24a5.75,5.75,0,1,1,8.14.93A5.79,5.79,0,0,1,115.76,104.45Z" transform="translate(-4.74 -4.68)"/></g></g></g><g id="Artwork_3-33" data-name="Artwork 3"><g class="cls-48"><g class="cls-48"><path class="cls-3" d="M158.22,96.81a10.54,10.54,0,1,0-1.57,14.81,10.55,10.55,0,0,0,1.57-14.81m-12.66,10.24a5.75,5.75,0,1,1,8.14.93,5.79,5.79,0,0,1-8.14-.93" transform="translate(-4.74 -4.68)"/><path class="cls-4" d="M158.22,96.81a10.54,10.54,0,1,0-1.57,14.81A10.55,10.55,0,0,0,158.22,96.81Zm-12.66,10.24a5.75,5.75,0,1,1,8.14.93A5.79,5.79,0,0,1,145.56,107.05Z" transform="translate(-4.74 -4.68)"/></g></g></g><g id="Artwork_3-34" data-name="Artwork 3"><g class="cls-49"><g class="cls-49"><path class="cls-3" d="M175.08,76.81a10.53,10.53,0,1,0-1.56,14.81,10.54,10.54,0,0,0,1.56-14.81M162.42,87.05a5.75,5.75,0,1,1,8.15.93,5.79,5.79,0,0,1-8.15-.93" transform="translate(-4.74 -4.68)"/><path class="cls-4" d="M175.08,76.81a10.53,10.53,0,1,0-1.56,14.81A10.54,10.54,0,0,0,175.08,76.81ZM162.42,87.05a5.75,5.75,0,1,1,8.15.93A5.79,5.79,0,0,1,162.42,87.05Z" transform="translate(-4.74 -4.68)"/></g></g></g><g id="Artwork_3-35" data-name="Artwork 3"><g class="cls-50"><g class="cls-50"><path class="cls-3" d="M175.08,48.08a10.53,10.53,0,1,0-1.56,14.81,10.53,10.53,0,0,0,1.56-14.81M162.42,58.32a5.75,5.75,0,1,1,8.15.92,5.8,5.8,0,0,1-8.15-.92" transform="translate(-4.74 -4.68)"/><path class="cls-4" d="M175.08,48.08a10.53,10.53,0,1,0-1.56,14.81A10.53,10.53,0,0,0,175.08,48.08ZM162.42,58.32a5.75,5.75,0,1,1,8.15.92A5.8,5.8,0,0,1,162.42,58.32Z" transform="translate(-4.74 -4.68)"/></g></g></g><g id="Artwork_3-36" data-name="Artwork 3"><g class="cls-51"><g class="cls-52"><path class="cls-3" d="M200.48,100.45a10.53,10.53,0,1,0-1.56,14.81,10.53,10.53,0,0,0,1.56-14.81m-12.66,10.24a5.75,5.75,0,1,1,8.15.92,5.8,5.8,0,0,1-8.15-.92" transform="translate(-4.74 -4.68)"/><path class="cls-4" d="M200.48,100.45a10.53,10.53,0,1,0-1.56,14.81A10.53,10.53,0,0,0,200.48,100.45Zm-12.66,10.24a5.75,5.75,0,1,1,8.15.92A5.8,5.8,0,0,1,187.82,110.69Z" transform="translate(-4.74 -4.68)"/></g></g></g><g id="Artwork_3-37" data-name="Artwork 3"><g class="cls-53"><g class="cls-53"><path class="cls-3" d="M180.15,123.52a10.53,10.53,0,1,0-1.57,14.81,10.53,10.53,0,0,0,1.57-14.81m-12.66,10.24a5.75,5.75,0,1,1,8.14.92,5.8,5.8,0,0,1-8.14-.92" transform="translate(-4.74 -4.68)"/><path class="cls-4" d="M180.15,123.52a10.53,10.53,0,1,0-1.57,14.81A10.53,10.53,0,0,0,180.15,123.52Zm-12.66,10.24a5.75,5.75,0,1,1,8.14.92A5.8,5.8,0,0,1,167.49,133.76Z" transform="translate(-4.74 -4.68)"/></g></g></g><g id="Artwork_3-38" data-name="Artwork 3"><g class="cls-54"><g class="cls-54"><path class="cls-3" d="M210,126.12a10.53,10.53,0,1,0-1.57,14.81A10.53,10.53,0,0,0,210,126.12m-12.66,10.23a5.75,5.75,0,1,1,8.14.93,5.79,5.79,0,0,1-8.14-.93" transform="translate(-4.74 -4.68)"/><path class="cls-4" d="M210,126.12a10.53,10.53,0,1,0-1.57,14.81A10.53,10.53,0,0,0,210,126.12Zm-12.66,10.23a5.75,5.75,0,1,1,8.14.93A5.79,5.79,0,0,1,197.29,136.35Z" transform="translate(-4.74 -4.68)"/></g></g></g><g id="Artwork_3-39" data-name="Artwork 3"><g class="cls-55"><g class="cls-55"><path class="cls-3" d="M226.82,106.12a10.54,10.54,0,1,0-1.57,14.81,10.54,10.54,0,0,0,1.57-14.81m-12.66,10.23a5.75,5.75,0,1,1,8.14.93,5.79,5.79,0,0,1-8.14-.93" transform="translate(-4.74 -4.68)"/><path class="cls-4" d="M226.82,106.12a10.54,10.54,0,1,0-1.57,14.81A10.54,10.54,0,0,0,226.82,106.12Zm-12.66,10.23a5.75,5.75,0,1,1,8.14.93A5.79,5.79,0,0,1,214.16,116.35Z" transform="translate(-4.74 -4.68)"/></g></g></g><g id="Artwork_3-40" data-name="Artwork 3"><g class="cls-56"><g class="cls-56"><path class="cls-3" d="M226.82,77.38a10.54,10.54,0,1,0-1.57,14.81,10.55,10.55,0,0,0,1.57-14.81M214.16,87.62a5.75,5.75,0,1,1,8.14.93,5.79,5.79,0,0,1-8.14-.93" transform="translate(-4.74 -4.68)"/><path class="cls-4" d="M226.82,77.38a10.54,10.54,0,1,0-1.57,14.81A10.55,10.55,0,0,0,226.82,77.38ZM214.16,87.62a5.75,5.75,0,1,1,8.14.93A5.79,5.79,0,0,1,214.16,87.62Z" transform="translate(-4.74 -4.68)"/></g></g></g><g id="Artwork_3-41" data-name="Artwork 3"><g class="cls-57"><g class="cls-58"><path class="cls-3" d="M185.92,156a10.53,10.53,0,1,0-1.56,14.81A10.53,10.53,0,0,0,185.92,156m-12.66,10.23a5.75,5.75,0,1,1,8.15.93,5.79,5.79,0,0,1-8.15-.93" transform="translate(-4.74 -4.68)"/><path class="cls-4" d="M185.92,156a10.53,10.53,0,1,0-1.56,14.81A10.53,10.53,0,0,0,185.92,156Zm-12.66,10.23a5.75,5.75,0,1,1,8.15.93A5.79,5.79,0,0,1,173.26,166.24Z" transform="translate(-4.74 -4.68)"/></g></g></g><g id="Artwork_3-42" data-name="Artwork 3"><g class="cls-59"><g class="cls-60"><path class="cls-3" d="M183.88,189.88a10.53,10.53,0,1,0-1.56,14.81,10.53,10.53,0,0,0,1.56-14.81m-12.66,10.24a5.75,5.75,0,1,1,8.15.92,5.8,5.8,0,0,1-8.15-.92" transform="translate(-4.74 -4.68)"/><path class="cls-4" d="M183.88,189.88a10.53,10.53,0,1,0-1.56,14.81A10.53,10.53,0,0,0,183.88,189.88Zm-12.66,10.24a5.75,5.75,0,1,1,8.15.92A5.8,5.8,0,0,1,171.22,200.12Z" transform="translate(-4.74 -4.68)"/></g></g></g><g id="Artwork_3-43" data-name="Artwork 3"><g class="cls-61"><g class="cls-61"><path class="cls-3" d="M157.08,19.35a10.53,10.53,0,1,0-1.56,14.8,10.53,10.53,0,0,0,1.56-14.8M144.42,29.58a5.75,5.75,0,1,1,8.15.93,5.79,5.79,0,0,1-8.15-.93" transform="translate(-4.74 -4.68)"/><path class="cls-4" d="M157.08,19.35a10.53,10.53,0,1,0-1.56,14.8A10.53,10.53,0,0,0,157.08,19.35ZM144.42,29.58a5.75,5.75,0,1,1,8.15.93A5.79,5.79,0,0,1,144.42,29.58Z" transform="translate(-4.74 -4.68)"/></g></g></g><g id="Artwork_3-44" data-name="Artwork 3"><g class="cls-62"><g class="cls-62"><path class="cls-3" d="M201,55.05a10.53,10.53,0,1,0-1.57,14.8A10.53,10.53,0,0,0,201,55.05M188.29,65.28a5.75,5.75,0,1,1,8.14.93,5.79,5.79,0,0,1-8.14-.93" transform="translate(-4.74 -4.68)"/><path class="cls-4" d="M201,55.05a10.53,10.53,0,1,0-1.57,14.8A10.53,10.53,0,0,0,201,55.05ZM188.29,65.28a5.75,5.75,0,1,1,8.14.93A5.79,5.79,0,0,1,188.29,65.28Z" transform="translate(-4.74 -4.68)"/></g></g></g><g id="Artwork_3-45" data-name="Artwork 3"><g class="cls-63"><g class="cls-63"><path class="cls-3" d="M221.75,151.79a10.53,10.53,0,1,0-1.57,14.8,10.53,10.53,0,0,0,1.57-14.8M209.09,162a5.75,5.75,0,1,1,8.14.93,5.79,5.79,0,0,1-8.14-.93" transform="translate(-4.74 -4.68)"/><path class="cls-4" d="M221.75,151.79a10.53,10.53,0,1,0-1.57,14.8A10.53,10.53,0,0,0,221.75,151.79ZM209.09,162a5.75,5.75,0,1,1,8.14.93A5.79,5.79,0,0,1,209.09,162Z" transform="translate(-4.74 -4.68)"/></g></g></g></g></g></svg>