<svg xmlns="http://www.w3.org/2000/svg" viewBox="0 0 221.33 225"><defs><style>.cls-1{fill:#af6b15;}</style></defs><title>Beef</title><g id="Layer_2" data-name="Layer 2"><g id="Beef"><path class="cls-1" d="M130.81,15.28,121.07,30a9.14,9.14,0,0,1-15.79-1L97.44,13.19A9.13,9.13,0,0,1,106.19,0l17.58,1.1A9.13,9.13,0,0,1,130.81,15.28Z"/><path class="cls-1" d="M102.73,225l-17.59-1.1a9.13,9.13,0,0,1-7-14.16L87.85,195a9.13,9.13,0,0,1,15.78,1l7.84,15.78A9.12,9.12,0,0,1,102.73,225Z"/><path class="cls-1" d="M62.51,186.44,49.85,198.69a9.12,9.12,0,0,1-15.2-4.34l-4.28-17.09a9.13,9.13,0,0,1,11.36-11l16.94,4.84A9.13,9.13,0,0,1,62.51,186.44Z"/><path class="cls-1" d="M36.34,141.54,26.6,156.22a9.13,9.13,0,0,1-15.78-1L3,139.45a9.12,9.12,0,0,1,8.74-13.17l17.59,1.1A9.13,9.13,0,0,1,36.34,141.54Z"/><path class="cls-1" d="M156.4,208.39l-17.58-1.09a9.13,9.13,0,0,1-7-14.16l9.74-14.68a9.13,9.13,0,0,1,15.78,1l7.84,15.78A9.12,9.12,0,0,1,156.4,208.39Z"/><path class="cls-1" d="M116.18,169.85,103.53,182.1a9.13,9.13,0,0,1-15.21-4.34L84,160.67a9.13,9.13,0,0,1,11.36-11l16.94,4.84A9.12,9.12,0,0,1,116.18,169.85Z"/><path class="cls-1" d="M90,125l-9.75,14.68a9.12,9.12,0,0,1-15.78-1l-7.84-15.77a9.14,9.14,0,0,1,8.75-13.18L83,110.79A9.13,9.13,0,0,1,90,125Z"/><path class="cls-1" d="M200.68,182.33l-17.58-1.1a9.13,9.13,0,0,1-7-14.16l9.75-14.67a9.13,9.13,0,0,1,15.78,1l7.84,15.78A9.13,9.13,0,0,1,200.68,182.33Z"/><path class="cls-1" d="M160.47,143.79,147.81,156a9.12,9.12,0,0,1-15.2-4.34l-4.29-17.09a9.13,9.13,0,0,1,11.37-11l16.94,4.83A9.13,9.13,0,0,1,160.47,143.79Z"/><path class="cls-1" d="M134.3,98.89l-9.74,14.68a9.13,9.13,0,0,1-15.78-1l-7.84-15.77a9.13,9.13,0,0,1,8.74-13.18l17.59,1.1A9.13,9.13,0,0,1,134.3,98.89Z"/><path class="cls-1" d="M211.61,129.37,194,128.27a9.13,9.13,0,0,1-7-14.16l9.75-14.68a9.13,9.13,0,0,1,15.78,1l7.84,15.77A9.13,9.13,0,0,1,211.61,129.37Z"/><path class="cls-1" d="M171.4,90.83l-12.66,12.25a9.14,9.14,0,0,1-15.21-4.34l-4.28-17.09a9.14,9.14,0,0,1,11.37-11l16.94,4.84A9.13,9.13,0,0,1,171.4,90.83Z"/><path class="cls-1" d="M140.4,57.08l-9.75,14.68a9.13,9.13,0,0,1-15.78-1L107,55a9.13,9.13,0,0,1,8.75-13.17l17.58,1.09A9.13,9.13,0,0,1,140.4,57.08Z"/><path class="cls-1" d="M190.92,65.08l-17.55,1.55a9.13,9.13,0,0,1-9.07-12.95l7.43-16a9.13,9.13,0,0,1,15.75-1.39L197.6,50.75A9.13,9.13,0,0,1,190.92,65.08Z"/><path class="cls-1" d="M85.92,66.88,69.51,60.49a9.13,9.13,0,0,1-2.4-15.63l13.74-11a9.13,9.13,0,0,1,14.74,5.74L98.26,57A9.13,9.13,0,0,1,85.92,66.88Z"/><path class="cls-1" d="M26,68.39,20.16,51.77a9.13,9.13,0,0,1,10.29-12L47.77,43A9.13,9.13,0,0,1,53,57.91L41.56,71.29A9.12,9.12,0,0,1,26,68.39Z"/><path class="cls-1" d="M65.43,106.16,49,99.77a9.13,9.13,0,0,1-2.4-15.63l13.74-11A9.13,9.13,0,0,1,75.1,78.85l2.67,17.42A9.13,9.13,0,0,1,65.43,106.16Z"/><path class="cls-1" d="M22.24,118.1,5.82,111.71a9.13,9.13,0,0,1-2.4-15.63l13.74-11A9.13,9.13,0,0,1,31.9,90.8l2.67,17.41A9.12,9.12,0,0,1,22.24,118.1Z"/></g></g></svg>