<svg xmlns="http://www.w3.org/2000/svg" xmlns:xlink="http://www.w3.org/1999/xlink" viewBox="0 0 219.8 205.17"><defs><style>.cls-1{fill:none;}.cls-2{clip-path:url(#clip-path);}.cls-3{fill:#349738;}.cls-4{clip-path:url(#clip-path-2);}.cls-5{clip-path:url(#clip-path-3);}.cls-6{clip-path:url(#clip-path-4);}.cls-7{clip-path:url(#clip-path-5);}.cls-8{clip-path:url(#clip-path-6);}.cls-9{clip-path:url(#clip-path-7);}.cls-10{clip-path:url(#clip-path-8);}.cls-11{clip-path:url(#clip-path-9);}.cls-12{clip-path:url(#clip-path-10);}.cls-13{clip-path:url(#clip-path-11);}.cls-14{clip-path:url(#clip-path-12);}.cls-15{clip-path:url(#clip-path-13);}.cls-16{clip-path:url(#clip-path-14);}.cls-17{clip-path:url(#clip-path-15);}.cls-18{clip-path:url(#clip-path-16);}.cls-19{clip-path:url(#clip-path-17);}.cls-20{clip-path:url(#clip-path-18);}.cls-21{clip-path:url(#clip-path-19);}.cls-22{clip-path:url(#clip-path-20);}.cls-23{clip-path:url(#clip-path-21);}.cls-24{clip-path:url(#clip-path-22);}.cls-25{clip-path:url(#clip-path-23);}.cls-26{clip-path:url(#clip-path-24);}</style><clipPath id="clip-path" transform="translate(-1.08 -1.08)"><rect class="cls-1" x="22" y="22.43" width="33.11" height="31.21"/></clipPath><clipPath id="clip-path-2" transform="translate(-1.08 -1.08)"><rect class="cls-1" y="62.43" width="33.11" height="31.21"/></clipPath><clipPath id="clip-path-3" transform="translate(-1.08 -1.08)"><rect class="cls-1" x="38.55" y="67.76" width="33.11" height="31.21"/></clipPath><clipPath id="clip-path-4" transform="translate(-1.08 -1.08)"><rect class="cls-1" x="55.11" y="34.43" width="33.11" height="31.21"/></clipPath><clipPath id="clip-path-5" transform="translate(-1.08 -1.08)"><rect class="cls-1" x="60" y="3.21" width="33.11" height="31.21"/></clipPath><clipPath id="clip-path-6" transform="translate(-1.08 -1.08)"><rect class="cls-1" x="5.45" y="104.43" width="33.11" height="31.21"/></clipPath><clipPath id="clip-path-7" transform="translate(-1.08 -1.08)"><rect class="cls-1" x="10.67" y="141.1" width="33.11" height="31.21"/></clipPath><clipPath id="clip-path-8" transform="translate(-1.08 -1.08)"><rect class="cls-1" x="43.45" y="107.1" width="33.11" height="31.21"/></clipPath><clipPath id="clip-path-9" transform="translate(-1.08 -1.08)"><rect class="cls-1" x="71.66" y="67.76" width="33.11" height="31.21"/></clipPath><clipPath id="clip-path-10" transform="translate(-1.08 -1.08)"><rect class="cls-1" x="93.11" y="31.21" width="33.11" height="31.21"/></clipPath><clipPath id="clip-path-11" transform="translate(-1.08 -1.08)"><rect class="cls-1" x="100.44" width="33.11" height="31.21"/></clipPath><clipPath id="clip-path-12" transform="translate(-1.08 -1.08)"><rect class="cls-1" x="128.68" y="160.6" width="31.21" height="33.11" transform="translate(-46.61 302.7) rotate(-84.17)"/></clipPath><clipPath id="clip-path-13" transform="translate(-1.08 -1.08)"><rect class="cls-1" x="154.63" y="123.04" width="31.21" height="33.11" transform="translate(14.07 294.77) rotate(-84.17)"/></clipPath><clipPath id="clip-path-14" transform="translate(-1.08 -1.08)"><rect class="cls-1" x="116.82" y="113.82" width="31.21" height="33.11" transform="translate(-10.73 248.87) rotate(-84.17)"/></clipPath><clipPath id="clip-path-15" transform="translate(-1.08 -1.08)"><rect class="cls-1" x="96.97" y="145.3" width="31.21" height="33.11" transform="translate(-59.88 257.4) rotate(-84.17)"/></clipPath><clipPath id="clip-path-16" transform="translate(-1.08 -1.08)"><rect class="cls-1" x="88.93" y="175.86" width="31.21" height="33.11" transform="translate(-97.5 276.85) rotate(-84.17)"/></clipPath><clipPath id="clip-path-17" transform="translate(-1.08 -1.08)"><rect class="cls-1" x="153.48" y="80.71" width="31.21" height="33.11" transform="translate(55.15 255.59) rotate(-84.17)"/></clipPath><clipPath id="clip-path-18" transform="translate(-1.08 -1.08)"><rect class="cls-1" x="140.01" y="38.37" width="31.21" height="33.11" transform="translate(85.17 204.16) rotate(-84.17)"/></clipPath><clipPath id="clip-path-19" transform="translate(-1.08 -1.08)"><rect class="cls-1" x="115.95" y="74.19" width="31.21" height="33.11" transform="translate(27.91 212.4) rotate(-84.17)"/></clipPath><clipPath id="clip-path-20" transform="translate(-1.08 -1.08)"><rect class="cls-1" x="83.89" y="110.46" width="31.21" height="33.11" transform="translate(-36.97 213.09) rotate(-84.17)"/></clipPath><clipPath id="clip-path-21" transform="translate(-1.08 -1.08)"><rect class="cls-1" x="58.84" y="144.64" width="31.21" height="33.11" transform="translate(-93.47 218.87) rotate(-84.17)"/></clipPath><clipPath id="clip-path-22" transform="translate(-1.08 -1.08)"><rect class="cls-1" x="48.37" y="174.94" width="31.21" height="33.11" transform="translate(-133.03 235.69) rotate(-84.17)"/></clipPath><clipPath id="clip-path-23" transform="translate(-1.08 -1.08)"><rect class="cls-1" x="176.12" y="51.21" width="31.21" height="33.11" transform="translate(104.84 251.61) rotate(-84.17)"/></clipPath><clipPath id="clip-path-24" transform="translate(-1.08 -1.08)"><rect class="cls-1" x="189.59" y="96.61" width="31.21" height="33.11" transform="translate(71.77 305.8) rotate(-84.17)"/></clipPath></defs><title>Peppers</title><g id="Layer_2" data-name="Layer 2"><g id="Peppers"><g id="Artwork_4" data-name="Artwork 4"><g class="cls-2"><rect class="cls-3" x="24.71" y="30.55" width="27.69" height="14.98" transform="translate(-16.42 31.62) rotate(-38.96)"/></g></g><g id="Artwork_4-2" data-name="Artwork 4"><g class="cls-4"><rect class="cls-3" x="2.71" y="70.55" width="27.69" height="14.98" transform="translate(-46.46 26.68) rotate(-38.96)"/></g></g><g id="Artwork_4-3" data-name="Artwork 4"><g class="cls-5"><rect class="cls-3" x="41.26" y="75.88" width="27.69" height="14.98" transform="translate(-41.24 52.11) rotate(-38.96)"/></g></g><g id="Artwork_4-4" data-name="Artwork 4"><g class="cls-6"><rect class="cls-3" x="57.82" y="42.55" width="27.69" height="14.98" transform="translate(-16.6 55.11) rotate(-38.96)"/></g></g><g id="Artwork_4-5" data-name="Artwork 4"><g class="cls-7"><rect class="cls-3" x="62.71" y="11.33" width="27.69" height="14.98" transform="translate(4.11 51.24) rotate(-38.96)"/></g></g><g id="Artwork_4-6" data-name="Artwork 4"><g class="cls-8"><rect class="cls-3" x="8.16" y="112.55" width="27.69" height="14.98" transform="translate(-71.66 39.45) rotate(-38.96)"/></g></g><g id="Artwork_4-7" data-name="Artwork 4"><g class="cls-9"><rect class="cls-3" x="13.38" y="149.21" width="27.69" height="14.98" transform="matrix(0.78, -0.63, 0.63, 0.78, -93.56, 50.89)"/></g></g><g id="Artwork_4-8" data-name="Artwork 4"><g class="cls-10"><rect class="cls-3" x="46.16" y="115.21" width="27.69" height="14.98" transform="translate(-64.89 63.94) rotate(-38.96)"/></g></g><g id="Artwork_4-9" data-name="Artwork 4"><g class="cls-11"><rect class="cls-3" x="74.37" y="75.88" width="27.69" height="14.98" transform="translate(-33.88 72.93) rotate(-38.96)"/></g></g><g id="Artwork_4-10" data-name="Artwork 4"><g class="cls-12"><rect class="cls-3" x="95.82" y="39.33" width="27.69" height="14.98" transform="translate(-6.13 78.28) rotate(-38.96)"/></g></g><g id="Artwork_4-11" data-name="Artwork 4"><g class="cls-13"><rect class="cls-3" x="103.15" y="8.12" width="27.69" height="14.98" transform="translate(15.13 75.95) rotate(-38.96)"/></g></g><g id="Artwork_4-12" data-name="Artwork 4"><g class="cls-14"><rect class="cls-3" x="130.45" y="169.67" width="27.69" height="14.98" transform="matrix(0.84, -0.55, 0.55, 0.84, -74.44, 106.57)"/></g></g><g id="Artwork_4-13" data-name="Artwork 4"><g class="cls-15"><rect class="cls-3" x="156.4" y="132.11" width="27.69" height="14.98" transform="matrix(0.84, -0.55, 0.55, 0.84, -49.7, 114.65)"/></g></g><g id="Artwork_4-14" data-name="Artwork 4"><g class="cls-16"><rect class="cls-3" x="118.59" y="122.89" width="27.69" height="14.98" transform="matrix(0.84, -0.55, 0.55, 0.84, -50.81, 92.49)"/></g></g><g id="Artwork_4-15" data-name="Artwork 4"><g class="cls-17"><rect class="cls-3" x="98.73" y="154.36" width="27.69" height="14.98" transform="matrix(0.84, -0.55, 0.55, 0.84, -71.24, 86.75)"/></g></g><g id="Artwork_4-16" data-name="Artwork 4"><g class="cls-18"><rect class="cls-3" x="90.69" y="184.92" width="27.69" height="14.98" transform="matrix(0.84, -0.55, 0.55, 0.84, -89.24, 87.33)"/></g></g><g id="Artwork_4-17" data-name="Artwork 4"><g class="cls-19"><rect class="cls-3" x="155.25" y="89.77" width="27.69" height="14.98" transform="matrix(0.84, -0.55, 0.55, 0.84, -26.75, 107.14)"/></g></g><g id="Artwork_4-18" data-name="Artwork 4"><g class="cls-20"><rect class="cls-3" x="141.78" y="47.44" width="27.69" height="14.98" transform="matrix(0.84, -0.55, 0.55, 0.84, -5.8, 92.9)"/></g></g><g id="Artwork_4-19" data-name="Artwork 4"><g class="cls-21"><rect class="cls-3" x="117.71" y="83.26" width="27.69" height="14.98" transform="matrix(0.84, -0.55, 0.55, 0.84, -29.29, 85.57)"/></g></g><g id="Artwork_4-20" data-name="Artwork 4"><g class="cls-22"><rect class="cls-3" x="85.65" y="119.52" width="27.69" height="14.98" transform="matrix(0.84, -0.55, 0.55, 0.84, -54.32, 73.94)"/></g></g><g id="Artwork_4-21" data-name="Artwork 4"><g class="cls-23"><rect class="cls-3" x="60.6" y="153.7" width="27.69" height="14.98" transform="matrix(0.84, -0.55, 0.55, 0.84, -77.07, 65.81)"/></g></g><g id="Artwork_4-22" data-name="Artwork 4"><g class="cls-24"><rect class="cls-3" x="50.14" y="184.01" width="27.69" height="14.98" transform="matrix(0.84, -0.55, 0.55, 0.84, -95.34, 65.01)"/></g></g><g id="Artwork_4-23" data-name="Artwork 4"><g class="cls-25"><rect class="cls-3" x="177.88" y="60.27" width="27.69" height="14.98" transform="matrix(0.84, -0.55, 0.55, 0.84, -6.95, 114.72)"/></g></g><g id="Artwork_4-24" data-name="Artwork 4"><g class="cls-26"><rect class="cls-3" x="191.35" y="105.68" width="27.69" height="14.98" transform="matrix(0.84, -0.55, 0.55, 0.84, -29.57, 129.46)"/></g></g></g></g></svg>