<svg xmlns="http://www.w3.org/2000/svg" viewBox="0 0 226.19 216.73"><defs><style>.cls-1{fill:#f0cde3;stroke:#662483;stroke-miterlimit:10;stroke-width:2px;}</style></defs><title>Onions</title><g id="Layer_2" data-name="Layer 2"><g id="Onions"><path class="cls-1" d="M20.41,54.67c0-26.17,28-47.34,62.67-47.34"/><path class="cls-1" d="M20.41,134.73C-2,121.16-5.51,86.21,12.46,56.6"/><path class="cls-1" d="M30.08,95.67c0-26.17,28-47.34,62.66-47.34"/><path class="cls-1" d="M30.08,135.46c25.64-5.2,52,18.07,58.83,52"/><path class="cls-1" d="M137.86,162.38c.24,26.16-27.59,47.59-62.23,47.91"/><path class="cls-1" d="M63.78,207c-26-3.17-43.6-33.55-39.4-67.94"/><path class="cls-1" d="M106.53,165.39c0-26.17,28-47.34,62.66-47.34"/><path class="cls-1" d="M134.77,107.73c-7.28,25.13-40.09,37.67-73.36,28"/><path class="cls-1" d="M150.08,170.7c0-26.16,28-47.33,62.66-47.33"/><path class="cls-1" d="M202.09,156.91c5.2,25.64-18.07,52-52,58.84"/><path class="cls-1" d="M92.74,48.33c0-26.16,28-47.33,62.67-47.33"/><path class="cls-1" d="M129.46,24.72c0,26.16-28.1,47.29-62.74,47.23"/><path class="cls-1" d="M140.72,22.09c23-12.46,55,2.11,71.45,32.58"/><path class="cls-1" d="M155.41,67.41C179,56,210.22,72.06,225.29,103.26"/><path class="cls-1" d="M117.6,92.6C108.09,117,74.28,126.5,42,113.91"/><path class="cls-1" d="M111.2,86.42C129.75,68,164.52,72.91,189,97.46"/></g></g></svg>