<svg xmlns="http://www.w3.org/2000/svg" viewBox="0 0 217.45 213.92"><defs><style>.cls-1{fill:#e2ae7f;}</style></defs><title>Chicken</title><g id="Layer_2" data-name="Layer 2"><g id="Chicken"><rect class="cls-1" x="30.85" y="22.88" width="22.16" height="31.12" rx="8.92" ry="8.92" transform="matrix(0.85, 0.53, -0.53, 0.85, 27.01, -16.45)"/><rect class="cls-1" x="67.85" y="1.55" width="22.16" height="31.12" rx="8.92" ry="8.92" transform="translate(21.33 -39.5) rotate(32.27)"/><rect class="cls-1" x="3.85" y="54.88" width="22.16" height="31.12" rx="8.92" ry="8.92" transform="matrix(0.85, 0.53, -0.53, 0.85, 39.92, 2.91)"/><rect class="cls-1" x="41.19" y="54.88" width="22.16" height="31.12" rx="8.92" ry="8.92" transform="matrix(0.85, 0.53, -0.53, 0.85, 45.69, -17.03)"/><rect class="cls-1" x="74.52" y="33.55" width="22.16" height="31.12" rx="8.92" ry="8.92" transform="translate(39.45 -38.12) rotate(32.27)"/><rect class="cls-1" x="154.03" y="32.34" width="22.16" height="31.12" rx="8.92" ry="8.92" transform="translate(297.4 -61.9) rotate(124.13)"/><rect class="cls-1" x="174.15" y="70.01" width="22.16" height="31.12" rx="8.92" ry="8.92" transform="translate(360 -19.76) rotate(124.13)"/><rect class="cls-1" x="134.63" y="-1.12" width="22.16" height="31.12" rx="8.92" ry="8.92" transform="translate(239.42 -98.09) rotate(124.13)"/><rect class="cls-1" x="121.71" y="41.64" width="22.16" height="31.12" rx="8.92" ry="8.92" transform="translate(254.64 -20.64) rotate(124.13)"/><rect class="cls-1" x="141.96" y="75.64" width="22.16" height="31.12" rx="8.92" ry="8.92" transform="translate(314.39 15.68) rotate(124.13)"/><rect class="cls-1" x="18.79" y="148.66" width="22.16" height="31.12" rx="8.92" ry="8.92" transform="translate(-111.73 75.84) rotate(-47.72)"/><rect class="cls-1" x="4.21" y="108.51" width="22.16" height="31.12" rx="8.92" ry="8.92" transform="translate(-86.8 51.91) rotate(-47.72)"/><rect class="cls-1" x="45.61" y="180.81" width="22.16" height="31.12" rx="8.92" ry="8.92" transform="translate(-126.74 106.2) rotate(-47.72)"/><rect class="cls-1" x="52.09" y="144.04" width="22.16" height="31.12" rx="8.92" ry="8.92" transform="translate(-97.41 98.97) rotate(-47.72)"/><rect class="cls-1" x="36.88" y="107.51" width="22.16" height="31.12" rx="8.92" ry="8.92" transform="translate(-75.36 75.76) rotate(-47.72)"/><rect class="cls-1" x="147.29" y="166.89" width="22.16" height="31.12" rx="8.92" ry="8.92" transform="translate(161.87 424.03) rotate(-139.87)"/><rect class="cls-1" x="107.73" y="182.97" width="22.16" height="31.12" rx="8.92" ry="8.92" transform="translate(81.69 426.9) rotate(-139.87)"/><rect class="cls-1" x="178.42" y="138.88" width="22.16" height="31.12" rx="8.92" ry="8.92" transform="translate(234.84 394.67) rotate(-139.87)"/><rect class="cls-1" x="141.43" y="133.78" width="22.16" height="31.12" rx="8.92" ry="8.92" transform="translate(172.87 361.83) rotate(-139.87)"/><rect class="cls-1" x="105.5" y="150.36" width="22.16" height="31.12" rx="8.92" ry="8.92" transform="translate(98.77 367.91) rotate(-139.87)"/><rect class="cls-1" x="81.04" y="67.02" width="22.16" height="31.12" rx="8.92" ry="8.92" transform="translate(58.33 -36.43) rotate(32.27)"/><rect class="cls-1" x="105.5" y="13.79" width="22.16" height="31.12" rx="8.92" ry="8.92" transform="translate(116.47 -90.87) rotate(75.82)"/><rect class="cls-1" x="69.04" y="98.29" width="22.16" height="31.12" rx="8.92" ry="8.92" transform="translate(73.17 -25.19) rotate(32.27)"/><rect class="cls-1" x="105.5" y="82.47" width="22.16" height="31.12" rx="8.92" ry="8.92" transform="translate(70.35 -47.1) rotate(32.27)"/><rect class="cls-1" x="101.84" y="119" width="22.16" height="31.12" rx="8.92" ry="8.92" transform="translate(199.53 -18.26) rotate(69.55)"/><rect class="cls-1" x="140.5" y="104.58" width="22.16" height="31.12" rx="8.92" ry="8.92" transform="translate(211.18 -63.87) rotate(69.55)"/><rect class="cls-1" x="190.46" y="108.51" width="22.16" height="31.12" rx="8.92" ry="8.92" transform="translate(247.37 -108.12) rotate(69.55)"/></g></g></svg>