<svg xmlns="http://www.w3.org/2000/svg" viewBox="0 0 214.09 211.33"><defs><style>.cls-1{fill:#fff0a4;}</style></defs><title>ExtraCheese (2)</title><g id="Layer_2" data-name="Layer 2"><g id="ExtraCheese"><ellipse class="cls-1" cx="65.24" cy="45.33" rx="27.86" ry="22.67"/><ellipse class="cls-1" cx="134.24" cy="22.67" rx="27.86" ry="22.67"/><ellipse class="cls-1" cx="183.57" cy="74.33" rx="27.86" ry="22.67"/><ellipse class="cls-1" cx="183.57" cy="130.33" rx="27.86" ry="22.67"/><ellipse class="cls-1" cx="162.09" cy="175.67" rx="27.86" ry="22.67"/><ellipse class="cls-1" cx="134.24" cy="126" rx="27.86" ry="22.67"/><ellipse class="cls-1" cx="127.86" cy="74.33" rx="27.86" ry="22.67"/><ellipse class="cls-1" cx="83.57" cy="76.33" rx="27.86" ry="22.67"/><ellipse class="cls-1" cx="93.09" cy="26.67" rx="27.86" ry="22.67"/><ellipse class="cls-1" cx="37.38" cy="68" rx="27.86" ry="22.67"/><ellipse class="cls-1" cx="58.24" cy="97" rx="27.86" ry="22.67"/><ellipse class="cls-1" cx="93.09" cy="117" rx="27.86" ry="22.67"/><ellipse class="cls-1" cx="127.86" cy="153" rx="27.86" ry="22.67"/><ellipse class="cls-1" cx="124.9" cy="188.67" rx="27.86" ry="22.67"/><ellipse class="cls-1" cx="88.9" cy="153" rx="27.86" ry="22.67"/><ellipse class="cls-1" cx="72.14" cy="182.33" rx="27.86" ry="22.67"/><ellipse class="cls-1" cx="186.24" cy="94.33" rx="27.86" ry="22.67"/><ellipse class="cls-1" cx="162.09" cy="45.33" rx="27.86" ry="22.67"/><ellipse class="cls-1" cx="44.29" cy="148.67" rx="27.86" ry="22.67"/><ellipse class="cls-1" cx="27.86" cy="107.67" rx="27.86" ry="22.67"/></g></g></svg>