<svg xmlns="http://www.w3.org/2000/svg" viewBox="0 0 220.33 208.75"><defs><style>.cls-1{fill:#f6b1b3;}</style></defs><title>Ham</title><g id="Layer_2" data-name="Layer 2"><g id="Ham"><rect class="cls-1" x="40.67" y="32" width="21.33" height="21.33"/><rect class="cls-1" x="7.33" y="65" width="21.33" height="21.33"/><rect class="cls-1" x="56.67" y="58.33" width="21.33" height="21.33"/><rect class="cls-1" x="35.33" y="86.33" width="21.33" height="21.33"/><rect class="cls-1" x="107" width="21.33" height="21.33"/><rect class="cls-1" x="71.67" y="9.83" width="21.33" height="21.33"/><rect class="cls-1" x="123" y="26.33" width="21.33" height="21.33"/><rect class="cls-1" x="90.95" y="54.33" width="21.33" height="21.33"/><rect class="cls-1" x="71.67" y="90.5" width="21.33" height="21.33"/><rect class="cls-1" x="38.33" y="123.5" width="21.33" height="21.33"/><rect class="cls-1" x="87.67" y="116.83" width="21.33" height="21.33"/><rect class="cls-1" x="66.33" y="144.83" width="21.33" height="21.33"/><rect class="cls-1" x="128.33" y="133.09" width="21.33" height="21.33"/><rect class="cls-1" x="95" y="166.09" width="21.33" height="21.33"/><rect class="cls-1" x="144.33" y="159.42" width="21.33" height="21.33"/><rect class="cls-1" x="123" y="187.42" width="21.33" height="21.33"/><rect class="cls-1" x="183" y="73.17" width="21.33" height="21.33"/><rect class="cls-1" x="149.67" y="106.17" width="21.33" height="21.33"/><rect class="cls-1" x="199" y="99.5" width="21.33" height="21.33"/><rect class="cls-1" x="177.67" y="127.5" width="21.33" height="21.33"/><rect class="cls-1" x="158.33" y="20.5" width="21.33" height="21.33"/><rect class="cls-1" x="117.17" y="86.33" width="21.33" height="21.33"/><rect class="cls-1" x="174.33" y="46.83" width="21.33" height="21.33"/><rect class="cls-1" x="153" y="74.83" width="21.33" height="21.33"/><rect class="cls-1" y="106.17" width="21.33" height="21.33"/><rect class="cls-1" x="10.67" y="154.59" width="21.33" height="21.33"/><rect class="cls-1" x="71.67" y="187.42" width="21.33" height="21.33"/><rect class="cls-1" x="38.67" y="175.92" width="21.33" height="21.33"/></g></g></svg>