<svg xmlns="http://www.w3.org/2000/svg" viewBox="0 0 218.42 217.07"><defs><style>.cls-1{fill:#af6b15;}</style></defs><title>Sausage</title><g id="Layer_2" data-name="Layer 2"><g id="Sausage"><ellipse class="cls-1" cx="10.9" cy="117.72" rx="7.5" ry="8.92"/><ellipse class="cls-1" cx="12.03" cy="118" rx="8.63" ry="6.37"/><ellipse class="cls-1" cx="14.54" cy="120.67" rx="6.12" ry="5.29"/><path class="cls-1" d="M12,116.44c0,2.82-2.69,5.1-6,5.1s-6-2.28-6-5.1,2.69-5.09,6-5.09S12,113.63,12,116.44Z"/><ellipse class="cls-1" cx="31.56" cy="142.67" rx="7.5" ry="8.92"/><ellipse class="cls-1" cx="32.69" cy="142.95" rx="8.63" ry="6.37"/><ellipse class="cls-1" cx="35.21" cy="145.63" rx="6.12" ry="5.29"/><path class="cls-1" d="M32.69,141.4c0,2.81-2.69,5.09-6,5.09s-6-2.28-6-5.09,2.7-5.1,6-5.1S32.69,138.59,32.69,141.4Z"/><ellipse class="cls-1" cx="41.89" cy="173.16" rx="7.5" ry="8.92"/><ellipse class="cls-1" cx="43.02" cy="173.44" rx="8.63" ry="6.37"/><ellipse class="cls-1" cx="45.54" cy="176.11" rx="6.12" ry="5.29"/><path class="cls-1" d="M43,171.88c0,2.82-2.69,5.1-6,5.1s-6-2.28-6-5.1,2.69-5.09,6-5.09S43,169.07,43,171.88Z"/><ellipse class="cls-1" cx="67.55" cy="190.99" rx="7.5" ry="8.92"/><ellipse class="cls-1" cx="68.68" cy="191.28" rx="8.63" ry="6.37"/><ellipse class="cls-1" cx="71.19" cy="193.95" rx="6.12" ry="5.29"/><path class="cls-1" d="M68.68,189.72c0,2.81-2.69,5.09-6,5.09s-6-2.28-6-5.09,2.69-5.1,6-5.1S68.68,186.91,68.68,189.72Z"/><ellipse class="cls-1" cx="104.96" cy="208.16" rx="7.5" ry="8.92"/><ellipse class="cls-1" cx="106.09" cy="208.44" rx="8.63" ry="6.37"/><ellipse class="cls-1" cx="108.61" cy="211.11" rx="6.12" ry="5.29"/><path class="cls-1" d="M106.09,206.88c0,2.82-2.69,5.1-6,5.1s-6-2.28-6-5.1,2.7-5.1,6-5.1S106.09,204.07,106.09,206.88Z"/><ellipse class="cls-1" cx="94.63" cy="179.81" rx="7.5" ry="8.92"/><ellipse class="cls-1" cx="95.76" cy="180.1" rx="8.63" ry="6.37"/><ellipse class="cls-1" cx="98.27" cy="182.77" rx="6.12" ry="5.29"/><path class="cls-1" d="M95.76,178.54c0,2.81-2.69,5.09-6,5.09s-6-2.28-6-5.09,2.69-5.1,6-5.1S95.76,175.73,95.76,178.54Z"/><ellipse class="cls-1" cx="68.11" cy="151.59" rx="7.5" ry="8.92"/><ellipse class="cls-1" cx="69.24" cy="151.87" rx="8.63" ry="6.37"/><ellipse class="cls-1" cx="71.76" cy="154.54" rx="6.12" ry="5.29"/><path class="cls-1" d="M69.24,150.31c0,2.82-2.69,5.1-6,5.1s-6-2.28-6-5.1,2.69-5.09,6-5.09S69.24,147.5,69.24,150.31Z"/><ellipse class="cls-1" cx="96.33" cy="147.96" rx="7.5" ry="8.92"/><ellipse class="cls-1" cx="97.46" cy="148.24" rx="8.63" ry="6.37"/><ellipse class="cls-1" cx="99.97" cy="150.92" rx="6.12" ry="5.29"/><path class="cls-1" d="M97.46,146.69c0,2.81-2.69,5.09-6,5.09s-6-2.28-6-5.09,2.69-5.1,6-5.1S97.46,143.88,97.46,146.69Z"/><ellipse class="cls-1" cx="92.01" cy="116.11" rx="7.5" ry="8.92"/><ellipse class="cls-1" cx="93.14" cy="116.39" rx="8.63" ry="6.37"/><ellipse class="cls-1" cx="95.65" cy="119.07" rx="6.12" ry="5.29"/><path class="cls-1" d="M93.14,114.84c0,2.81-2.69,5.09-6,5.09s-6-2.28-6-5.09,2.7-5.1,6-5.1S93.14,112,93.14,114.84Z"/><ellipse class="cls-1" cx="65.64" cy="118" rx="7.5" ry="8.92"/><ellipse class="cls-1" cx="66.77" cy="118.28" rx="8.63" ry="6.37"/><ellipse class="cls-1" cx="69.28" cy="120.95" rx="6.12" ry="5.29"/><path class="cls-1" d="M66.77,116.73c0,2.81-2.69,5.09-6,5.09s-6-2.28-6-5.09,2.69-5.1,6-5.1S66.77,113.91,66.77,116.73Z"/><ellipse class="cls-1" cx="21.23" cy="92.76" rx="7.5" ry="8.92"/><ellipse class="cls-1" cx="22.36" cy="93.05" rx="8.63" ry="6.37"/><ellipse class="cls-1" cx="24.87" cy="95.72" rx="6.12" ry="5.29"/><path class="cls-1" d="M22.36,91.49c0,2.81-2.69,5.09-6,5.09s-6-2.28-6-5.09,2.69-5.1,6-5.1S22.36,88.68,22.36,91.49Z"/><ellipse class="cls-1" cx="55.3" cy="90.43" rx="7.5" ry="8.92"/><ellipse class="cls-1" cx="56.44" cy="90.71" rx="8.63" ry="6.37"/><ellipse class="cls-1" cx="58.95" cy="93.38" rx="6.12" ry="5.29"/><path class="cls-1" d="M56.44,89.15c0,2.82-2.7,5.1-6,5.1s-6-2.28-6-5.1,2.69-5.09,6-5.09S56.44,86.34,56.44,89.15Z"/><ellipse class="cls-1" cx="87.69" cy="81.51" rx="7.5" ry="8.92"/><ellipse class="cls-1" cx="88.83" cy="81.79" rx="8.63" ry="6.37"/><ellipse class="cls-1" cx="91.34" cy="84.46" rx="6.12" ry="5.29"/><path class="cls-1" d="M88.83,80.24c0,2.81-2.7,5.09-6,5.09s-6-2.28-6-5.09,2.69-5.1,6-5.1S88.83,77.42,88.83,80.24Z"/><ellipse class="cls-1" cx="31.56" cy="51.83" rx="7.5" ry="8.92"/><ellipse class="cls-1" cx="32.69" cy="52.11" rx="8.63" ry="6.37"/><ellipse class="cls-1" cx="35.21" cy="54.78" rx="6.12" ry="5.29"/><path class="cls-1" d="M32.69,50.55c0,2.82-2.69,5.1-6,5.1s-6-2.28-6-5.1,2.7-5.09,6-5.09S32.69,47.74,32.69,50.55Z"/><ellipse class="cls-1" cx="71.76" cy="52.11" rx="7.5" ry="8.92"/><ellipse class="cls-1" cx="72.89" cy="52.39" rx="8.63" ry="6.37"/><ellipse class="cls-1" cx="75.4" cy="55.06" rx="6.12" ry="5.29"/><path class="cls-1" d="M72.89,50.83c0,2.82-2.69,5.1-6,5.1s-6-2.28-6-5.1,2.69-5.09,6-5.09S72.89,48,72.89,50.83Z"/><ellipse class="cls-1" cx="72.32" cy="19.83" rx="7.5" ry="8.92"/><ellipse class="cls-1" cx="73.45" cy="20.11" rx="8.63" ry="6.37"/><ellipse class="cls-1" cx="75.97" cy="22.78" rx="6.12" ry="5.29"/><path class="cls-1" d="M73.45,18.55c0,2.82-2.69,5.1-6,5.1s-6-2.28-6-5.1,2.69-5.09,6-5.09S73.45,15.74,73.45,18.55Z"/><ellipse class="cls-1" cx="113.03" cy="101.68" rx="7.5" ry="8.92"/><ellipse class="cls-1" cx="114.16" cy="101.96" rx="8.63" ry="6.37"/><ellipse class="cls-1" cx="116.67" cy="104.63" rx="6.12" ry="5.29"/><path class="cls-1" d="M114.16,100.4c0,2.82-2.69,5.1-6,5.1s-6-2.28-6-5.1,2.69-5.09,6-5.09S114.16,97.59,114.16,100.4Z"/><ellipse class="cls-1" cx="192.3" cy="46.02" rx="7.5" ry="8.92"/><ellipse class="cls-1" cx="193.43" cy="46.31" rx="8.63" ry="6.37"/><ellipse class="cls-1" cx="195.95" cy="48.98" rx="6.12" ry="5.29"/><path class="cls-1" d="M193.43,44.75c0,2.81-2.69,5.09-6,5.09s-6-2.28-6-5.09,2.69-5.1,6-5.1S193.43,41.94,193.43,44.75Z"/><ellipse class="cls-1" cx="129.83" cy="167.14" rx="7.5" ry="8.92"/><ellipse class="cls-1" cx="130.97" cy="167.42" rx="8.63" ry="6.37"/><ellipse class="cls-1" cx="133.48" cy="170.09" rx="6.12" ry="5.29"/><path class="cls-1" d="M131,165.86c0,2.82-2.7,5.1-6,5.1s-6-2.28-6-5.1,2.69-5.09,6-5.09S131,163.05,131,165.86Z"/><ellipse class="cls-1" cx="140.17" cy="202.07" rx="7.5" ry="8.92"/><ellipse class="cls-1" cx="141.3" cy="202.35" rx="8.63" ry="6.37"/><ellipse class="cls-1" cx="143.81" cy="205.02" rx="6.12" ry="5.29"/><path class="cls-1" d="M141.3,200.79c0,2.82-2.69,5.1-6,5.1s-6-2.28-6-5.1,2.69-5.09,6-5.09S141.3,198,141.3,200.79Z"/><ellipse class="cls-1" cx="170.09" cy="191.28" rx="7.5" ry="8.92"/><ellipse class="cls-1" cx="171.22" cy="191.56" rx="8.63" ry="6.37"/><ellipse class="cls-1" cx="173.73" cy="194.23" rx="6.12" ry="5.29"/><path class="cls-1" d="M171.22,190c0,2.82-2.69,5.1-6,5.1s-6-2.28-6-5.1,2.69-5.09,6-5.09S171.22,187.19,171.22,190Z"/><ellipse class="cls-1" cx="159.76" cy="161.05" rx="7.5" ry="8.92"/><ellipse class="cls-1" cx="160.89" cy="161.33" rx="8.63" ry="6.37"/><ellipse class="cls-1" cx="163.4" cy="164" rx="6.12" ry="5.29"/><path class="cls-1" d="M160.89,159.78c0,2.81-2.69,5.09-6,5.09s-6-2.28-6-5.09,2.69-5.1,6-5.1S160.89,157,160.89,159.78Z"/><ellipse class="cls-1" cx="148.23" cy="132.48" rx="7.5" ry="8.92"/><ellipse class="cls-1" cx="149.37" cy="132.76" rx="8.63" ry="6.37"/><ellipse class="cls-1" cx="151.88" cy="135.43" rx="6.12" ry="5.29"/><path class="cls-1" d="M149.37,131.2c0,2.82-2.7,5.1-6,5.1s-6-2.28-6-5.1,2.69-5.09,6-5.09S149.37,128.39,149.37,131.2Z"/><ellipse class="cls-1" cx="194.21" cy="167.7" rx="7.5" ry="8.92"/><ellipse class="cls-1" cx="195.35" cy="167.99" rx="8.63" ry="6.37"/><ellipse class="cls-1" cx="197.86" cy="170.66" rx="6.12" ry="5.29"/><path class="cls-1" d="M195.35,166.43c0,2.81-2.7,5.09-6,5.09s-6-2.28-6-5.09,2.69-5.1,6-5.1S195.35,163.62,195.35,166.43Z"/><ellipse class="cls-1" cx="180.42" cy="138.44" rx="7.5" ry="8.92"/><ellipse class="cls-1" cx="181.55" cy="138.73" rx="8.63" ry="6.37"/><ellipse class="cls-1" cx="184.07" cy="141.4" rx="6.12" ry="5.29"/><path class="cls-1" d="M181.55,137.17c0,2.81-2.69,5.09-6,5.09s-6-2.28-6-5.09,2.7-5.1,6-5.1S181.55,134.36,181.55,137.17Z"/><ellipse class="cls-1" cx="120.11" cy="137.17" rx="7.5" ry="8.92"/><ellipse class="cls-1" cx="121.24" cy="137.45" rx="8.63" ry="6.37"/><ellipse class="cls-1" cx="123.75" cy="140.12" rx="6.12" ry="5.29"/><path class="cls-1" d="M121.24,135.89c0,2.82-2.69,5.1-6,5.1s-6-2.28-6-5.1,2.69-5.09,6-5.09S121.24,133.08,121.24,135.89Z"/><ellipse class="cls-1" cx="208.65" cy="128.94" rx="7.5" ry="8.92"/><ellipse class="cls-1" cx="209.78" cy="129.23" rx="8.63" ry="6.37"/><ellipse class="cls-1" cx="212.29" cy="131.9" rx="6.12" ry="5.29"/><path class="cls-1" d="M209.78,127.67c0,2.81-2.69,5.09-6,5.09s-6-2.28-6-5.09,2.69-5.1,6-5.1S209.78,124.86,209.78,127.67Z"/><ellipse class="cls-1" cx="145.22" cy="108.8" rx="7.5" ry="8.92"/><ellipse class="cls-1" cx="146.35" cy="109.08" rx="8.63" ry="6.37"/><ellipse class="cls-1" cx="148.86" cy="111.75" rx="6.12" ry="5.29"/><path class="cls-1" d="M146.35,107.53c0,2.81-2.69,5.09-6,5.09s-6-2.28-6-5.09,2.69-5.1,6-5.1S146.35,104.71,146.35,107.53Z"/><ellipse class="cls-1" cx="184.63" cy="110.02" rx="7.5" ry="8.92"/><ellipse class="cls-1" cx="185.76" cy="110.31" rx="8.63" ry="6.37"/><ellipse class="cls-1" cx="188.28" cy="112.98" rx="6.12" ry="5.29"/><path class="cls-1" d="M185.76,108.75c0,2.81-2.69,5.09-6,5.09s-6-2.28-6-5.09,2.7-5.1,6-5.1S185.76,105.94,185.76,108.75Z"/><ellipse class="cls-1" cx="112.69" cy="78.03" rx="7.5" ry="8.92"/><ellipse class="cls-1" cx="113.83" cy="78.32" rx="8.63" ry="6.37"/><ellipse class="cls-1" cx="116.34" cy="80.99" rx="6.12" ry="5.29"/><path class="cls-1" d="M113.83,76.76c0,2.81-2.7,5.09-6,5.09s-6-2.28-6-5.09,2.69-5.1,6-5.1S113.83,74,113.83,76.76Z"/><ellipse class="cls-1" cx="146.77" cy="75.7" rx="7.5" ry="8.92"/><ellipse class="cls-1" cx="147.9" cy="75.98" rx="8.63" ry="6.37"/><ellipse class="cls-1" cx="150.41" cy="78.65" rx="6.12" ry="5.29"/><path class="cls-1" d="M147.9,74.42c0,2.82-2.69,5.1-6,5.1s-6-2.28-6-5.1,2.69-5.09,6-5.09S147.9,71.61,147.9,74.42Z"/><ellipse class="cls-1" cx="179.16" cy="66.78" rx="7.5" ry="8.92"/><ellipse class="cls-1" cx="180.29" cy="67.06" rx="8.63" ry="6.37"/><ellipse class="cls-1" cx="182.8" cy="69.74" rx="6.12" ry="5.29"/><path class="cls-1" d="M180.29,65.51c0,2.81-2.69,5.09-6,5.09s-6-2.28-6-5.09,2.69-5.1,6-5.1S180.29,62.69,180.29,65.51Z"/><ellipse class="cls-1" cx="123.03" cy="37.1" rx="7.5" ry="8.92"/><ellipse class="cls-1" cx="124.16" cy="37.38" rx="8.63" ry="6.37"/><ellipse class="cls-1" cx="126.67" cy="40.05" rx="6.12" ry="5.29"/><path class="cls-1" d="M124.16,35.82c0,2.82-2.69,5.1-6,5.1s-6-2.28-6-5.1,2.69-5.09,6-5.09S124.16,33,124.16,35.82Z"/><ellipse class="cls-1" cx="155.55" cy="39.94" rx="7.5" ry="8.92"/><ellipse class="cls-1" cx="156.68" cy="40.22" rx="8.63" ry="6.37"/><ellipse class="cls-1" cx="159.19" cy="42.89" rx="6.12" ry="5.29"/><path class="cls-1" d="M156.68,38.66c0,2.82-2.69,5.1-6,5.1s-6-2.28-6-5.1,2.69-5.09,6-5.09S156.68,35.85,156.68,38.66Z"/><ellipse class="cls-1" cx="124.72" cy="8.92" rx="7.5" ry="8.92"/><ellipse class="cls-1" cx="125.86" cy="9.2" rx="8.63" ry="6.37"/><ellipse class="cls-1" cx="128.37" cy="11.87" rx="6.12" ry="5.29"/><path class="cls-1" d="M125.86,7.64c0,2.82-2.7,5.1-6,5.1s-6-2.28-6-5.1,2.69-5.09,6-5.09S125.86,4.83,125.86,7.64Z"/><ellipse class="cls-1" cx="204.49" cy="86.95" rx="7.5" ry="8.92"/><ellipse class="cls-1" cx="205.63" cy="87.23" rx="8.63" ry="6.37"/><ellipse class="cls-1" cx="208.14" cy="89.9" rx="6.12" ry="5.29"/><path class="cls-1" d="M205.63,85.67c0,2.82-2.7,5.1-6,5.1s-6-2.28-6-5.1,2.69-5.09,6-5.09S205.63,82.86,205.63,85.67Z"/></g></g></svg>