<svg xmlns="http://www.w3.org/2000/svg" xmlns:xlink="http://www.w3.org/1999/xlink" viewBox="0 0 227.31 223.35"><defs><style>.cls-1{fill:none;}.cls-2{clip-path:url(#clip-path);}.cls-3{fill:#ffe7b6;}.cls-4{clip-path:url(#clip-path-3);}.cls-5{clip-path:url(#clip-path-5);}.cls-6{clip-path:url(#clip-path-6);}.cls-7{clip-path:url(#clip-path-7);}.cls-8{clip-path:url(#clip-path-9);}.cls-9{clip-path:url(#clip-path-11);}.cls-10{clip-path:url(#clip-path-13);}.cls-11{clip-path:url(#clip-path-15);}.cls-12{clip-path:url(#clip-path-17);}.cls-13{clip-path:url(#clip-path-18);}.cls-14{clip-path:url(#clip-path-19);}.cls-15{clip-path:url(#clip-path-20);}.cls-16{clip-path:url(#clip-path-21);}.cls-17{clip-path:url(#clip-path-23);}.cls-18{clip-path:url(#clip-path-25);}.cls-19{clip-path:url(#clip-path-26);}.cls-20{clip-path:url(#clip-path-27);}.cls-21{clip-path:url(#clip-path-29);}.cls-22{clip-path:url(#clip-path-31);}.cls-23{clip-path:url(#clip-path-33);}.cls-24{clip-path:url(#clip-path-34);}.cls-25{clip-path:url(#clip-path-35);}.cls-26{clip-path:url(#clip-path-37);}.cls-27{clip-path:url(#clip-path-39);}.cls-28{clip-path:url(#clip-path-40);}.cls-29{clip-path:url(#clip-path-41);}.cls-30{clip-path:url(#clip-path-43);}.cls-31{clip-path:url(#clip-path-45);}.cls-32{clip-path:url(#clip-path-47);}.cls-33{clip-path:url(#clip-path-49);}.cls-34{clip-path:url(#clip-path-50);}.cls-35{clip-path:url(#clip-path-51);}.cls-36{clip-path:url(#clip-path-53);}.cls-37{clip-path:url(#clip-path-55);}.cls-38{clip-path:url(#clip-path-57);}.cls-39{clip-path:url(#clip-path-58);}.cls-40{clip-path:url(#clip-path-59);}.cls-41{clip-path:url(#clip-path-60);}</style><clipPath id="clip-path" transform="translate(-3.74 -2.9)"><rect class="cls-1" x="51.32" y="18.52" width="29.4" height="31.53"/></clipPath><clipPath id="clip-path-3" transform="translate(-3.74 -2.9)"><rect class="cls-1" x="22.92" y="40.71" width="31.53" height="29.4" transform="translate(-24.97 32.74) rotate(-35.48)"/></clipPath><clipPath id="clip-path-5" transform="translate(-3.74 -2.9)"><rect class="cls-1" x="60.06" y="50.05" width="29.4" height="31.53"/></clipPath><clipPath id="clip-path-6" transform="translate(-3.74 -2.9)"><rect class="cls-1" x="60.06" y="50.05" width="29.4" height="31.53"/></clipPath><clipPath id="clip-path-7" transform="translate(-3.74 -2.9)"><rect class="cls-1" x="77.76" y="2.75" width="29.4" height="31.53" transform="translate(-1.83 19.96) rotate(-12.2)"/></clipPath><clipPath id="clip-path-9" transform="translate(-3.74 -2.9)"><rect class="cls-1" x="90.66" y="34.29" width="29.4" height="31.53" transform="translate(-10.82 60.43) rotate(-30.52)"/></clipPath><clipPath id="clip-path-11" transform="translate(-3.74 -2.9)"><rect class="cls-1" x="37.01" y="87.22" width="31.53" height="29.4" transform="translate(-50.33 51.5) rotate(-36.56)"/></clipPath><clipPath id="clip-path-13" transform="translate(-3.74 -2.9)"><rect class="cls-1" x="4.83" y="76.78" width="29.4" height="31.53" transform="translate(-74.53 82.59) rotate(-72.04)"/></clipPath><clipPath id="clip-path-15" transform="translate(-3.74 -2.9)"><rect class="cls-1" x="16.89" y="113.03" width="31.53" height="29.4" transform="translate(-69.66 44.59) rotate(-36.56)"/></clipPath><clipPath id="clip-path-17" transform="translate(-3.74 -2.9)"><rect class="cls-1" x="81.48" y="124.31" width="31.53" height="29.4" transform="translate(-71.39 120.52) rotate(-48.77)"/></clipPath><clipPath id="clip-path-18" transform="translate(-3.74 -2.9)"><rect class="cls-1" x="81.48" y="124.31" width="31.53" height="29.4" transform="translate(-71.39 120.52) rotate(-48.77)"/></clipPath><clipPath id="clip-path-19" transform="translate(-3.74 -2.9)"><rect class="cls-1" x="47.79" y="128.21" width="31.53" height="29.4" transform="translate(-92.83 145.79) rotate(-67.08)"/></clipPath><clipPath id="clip-path-20" transform="translate(-3.74 -2.9)"><rect class="cls-1" x="47.79" y="128.21" width="31.53" height="29.4" transform="translate(-92.83 145.79) rotate(-67.08)"/></clipPath><clipPath id="clip-path-21" transform="translate(-3.74 -2.9)"><rect class="cls-1" x="142.19" y="87.31" width="29.4" height="31.53" transform="translate(-11.14 19.37) rotate(-6.82)"/></clipPath><clipPath id="clip-path-23" transform="translate(-3.74 -2.9)"><rect class="cls-1" x="165.75" y="64.16" width="31.53" height="29.4" transform="translate(-5.81 142.7) rotate(-42.3)"/></clipPath><clipPath id="clip-path-25" transform="translate(-3.74 -2.9)"><rect class="cls-1" x="129.77" y="57.04" width="29.4" height="31.53" transform="translate(-7.63 17.68) rotate(-6.82)"/></clipPath><clipPath id="clip-path-26" transform="translate(-3.74 -2.9)"><rect class="cls-1" x="129.77" y="57.04" width="29.4" height="31.53" transform="translate(-7.63 17.68) rotate(-6.82)"/></clipPath><clipPath id="clip-path-27" transform="translate(-3.74 -2.9)"><rect class="cls-1" x="117.81" y="106.11" width="29.4" height="31.53" transform="translate(-32.49 49.86) rotate(-19.03)"/></clipPath><clipPath id="clip-path-29" transform="translate(-3.74 -2.9)"><rect class="cls-1" x="101.25" y="76.33" width="29.4" height="31.53" transform="translate(-32.1 89.21) rotate(-37.34)"/></clipPath><clipPath id="clip-path-31" transform="translate(-3.74 -2.9)"><rect class="cls-1" x="85.01" y="164.46" width="29.4" height="31.53"/></clipPath><clipPath id="clip-path-33" transform="translate(-3.74 -2.9)"><rect class="cls-1" x="56.61" y="186.65" width="31.53" height="29.4" transform="translate(-103.42 79.39) rotate(-35.48)"/></clipPath><clipPath id="clip-path-34" transform="translate(-3.74 -2.9)"><rect class="cls-1" x="56.61" y="186.65" width="31.53" height="29.4" transform="translate(-103.42 79.39) rotate(-35.48)"/></clipPath><clipPath id="clip-path-35" transform="translate(-3.74 -2.9)"><rect class="cls-1" x="93.75" y="196" width="29.4" height="31.53"/></clipPath><clipPath id="clip-path-37" transform="translate(-3.74 -2.9)"><rect class="cls-1" x="111.45" y="148.7" width="29.4" height="31.53" transform="translate(-31.91 30.38) rotate(-12.2)"/></clipPath><clipPath id="clip-path-39" transform="translate(-3.74 -2.9)"><rect class="cls-1" x="124.35" y="180.23" width="29.4" height="31.53" transform="matrix(0.86, -0.51, 0.51, 0.86, -80.26, 97.75)"/></clipPath><clipPath id="clip-path-40" transform="translate(-3.74 -2.9)"><rect class="cls-1" x="124.35" y="180.23" width="29.4" height="31.53" transform="translate(-80.26 97.75) rotate(-30.52)"/></clipPath><clipPath id="clip-path-41" transform="translate(-3.74 -2.9)"><rect class="cls-1" x="74.76" y="95.63" width="29.4" height="31.53"/></clipPath><clipPath id="clip-path-43" transform="translate(-3.74 -2.9)"><rect class="cls-1" x="5.6" y="145.86" width="31.53" height="29.4" transform="translate(-89.21 42.21) rotate(-35.48)"/></clipPath><clipPath id="clip-path-45" transform="translate(-3.74 -2.9)"><rect class="cls-1" x="30.97" y="167.92" width="29.4" height="31.53"/></clipPath><clipPath id="clip-path-47" transform="translate(-3.74 -2.9)"><rect class="cls-1" x="192.34" y="140.67" width="29.4" height="31.53" transform="translate(-28.39 47.3) rotate(-12.2)"/></clipPath><clipPath id="clip-path-49" transform="translate(-3.74 -2.9)"><rect class="cls-1" x="166.82" y="173.2" width="29.4" height="31.53" transform="matrix(0.86, -0.51, 0.51, 0.86, -70.81, 118.35)"/></clipPath><clipPath id="clip-path-50" transform="translate(-3.74 -2.9)"><rect class="cls-1" x="166.82" y="173.2" width="29.4" height="31.53" transform="translate(-70.81 118.35) rotate(-30.52)"/></clipPath><clipPath id="clip-path-51" transform="translate(-3.74 -2.9)"><rect class="cls-1" x="183.95" y="106.9" width="29.4" height="31.53"/></clipPath><clipPath id="clip-path-53" transform="translate(-3.74 -2.9)"><rect class="cls-1" x="201.2" y="77.4" width="31.53" height="29.4" transform="translate(-13.17 143.02) rotate(-35.48)"/></clipPath><clipPath id="clip-path-55" transform="translate(-3.74 -2.9)"><rect class="cls-1" x="162.58" y="31.58" width="29.4" height="31.53"/></clipPath><clipPath id="clip-path-57" transform="translate(-3.74 -2.9)"><rect class="cls-1" x="151.9" y="133.16" width="29.4" height="31.53" transform="translate(-27.72 38.58) rotate(-12.2)"/></clipPath><clipPath id="clip-path-58" transform="translate(-3.74 -2.9)"><rect class="cls-1" x="151.9" y="133.16" width="29.4" height="31.53" transform="translate(-27.71 38.58) rotate(-12.2)"/></clipPath><clipPath id="clip-path-59" transform="translate(-3.74 -2.9)"><rect class="cls-1" x="122.51" y="10.53" width="29.4" height="31.53" transform="matrix(0.86, -0.51, 0.51, 0.86, 5.65, 73.31)"/></clipPath><clipPath id="clip-path-60" transform="translate(-3.74 -2.9)"><rect class="cls-1" x="122.51" y="10.53" width="29.4" height="31.53" transform="translate(5.65 73.31) rotate(-30.52)"/></clipPath></defs><title>Mushrooms</title><g id="Layer_2" data-name="Layer 2"><g id="Mushrooms"><g id="Artwork_2" data-name="Artwork 2"><g class="cls-2"><g class="cls-2"><path class="cls-3" d="M53,34.36c-2-1.64.31-10,5.92-13.32,6.1-3.59,14.92-.44,18.61,5.42,2.44,3.87,3.27,9.92.12,14.69-2.23,3.39-6.76,6.56-9.71,5.57-3.19-1.07-2.92-6.52-4.63-6.49-.89,0-2.25,1.55-4.23,8.54l-6-2c5.63-8,7.28-11.94,6.2-13s-4.83,1.83-6.33.58" transform="translate(-3.74 -2.9)"/></g></g></g><g id="Artwork_2-2" data-name="Artwork 2"><g class="cls-4"><g class="cls-4"><path class="cls-3" d="M31.08,44.86c.2-2.56,8.34-5.57,14.29-2.91,6.46,2.89,9,11.89,6.38,18.31-1.74,4.23-6.17,8.41-11.88,8.62-4.07.15-9.28-1.7-10.18-4.67-1-3.23,3.61-6.17,2.6-7.54-.54-.72-2.58-.94-9.41,1.51-.61-2-1.21-4-1.82-6,9.79-.07,14-1,14.17-2.48s-4.3-2.88-4.15-4.83" transform="translate(-3.74 -2.9)"/></g></g></g><g id="Artwork_2-3" data-name="Artwork 2"><g class="cls-5"><g class="cls-6"><path class="cls-3" d="M61.76,65.89c-2-1.64.3-10,5.92-13.32C73.78,49,82.6,52.13,86.29,58c2.44,3.87,3.27,9.91.12,14.68-2.23,3.39-6.77,6.56-9.71,5.58-3.2-1.07-2.92-6.53-4.63-6.49-.9,0-2.25,1.55-4.23,8.53l-6-2c5.63-8,7.28-11.93,6.2-13s-4.83,1.83-6.33.57" transform="translate(-3.74 -2.9)"/></g></g></g><g id="Artwork_2-4" data-name="Artwork 2"><g class="cls-7"><g class="cls-7"><path class="cls-3" d="M105.16,15.7c2.27,1.19,1.82,9.86-3,14.27C97,34.76,87.7,33.55,82.85,28.6c-3.2-3.26-5.3-9-3.23-14.32,1.47-3.79,5.23-7.85,8.32-7.51,3.35.37,4.24,5.76,5.89,5.37.88-.21,1.88-2,2.33-9.24l6.25.71c-3.81,9-4.6,13.2-3.32,14s4.33-2.81,6.07-1.9" transform="translate(-3.74 -2.9)"/></g></g></g><g id="Artwork_2-5" data-name="Artwork 2"><g class="cls-8"><g class="cls-8"><path class="cls-3" d="M116.53,43.39c2.53.41,4.82,8.79,1.66,14.48-3.44,6.19-12.63,7.95-18.79,4.78-4.06-2.1-7.85-6.88-7.56-12.59.21-4.06,2.5-9.09,5.54-9.74,3.29-.7,5.83,4.14,7.28,3.24.76-.47,1.16-2.48-.69-9.5l6.15-1.29c-.78,9.76-.22,14,1.24,14.33s3.24-4,5.17-3.71" transform="translate(-3.74 -2.9)"/></g></g></g><g id="Artwork_2-6" data-name="Artwork 2"><g class="cls-9"><g class="cls-9"><path class="cls-3" d="M45,91.52c.15-2.56,8.24-5.72,14.23-3.18,6.52,2.77,9.24,11.72,6.73,18.18-1.65,4.27-6,8.54-11.72,8.85-4.06.22-9.3-1.53-10.26-4.48-1.05-3.21,3.49-6.23,2.45-7.58-.55-.71-2.59-.89-9.37,1.68-.65-2-1.29-4-1.94-6,9.79-.26,13.93-1.27,14.12-2.75S44.86,93.48,45,91.52" transform="translate(-3.74 -2.9)"/></g></g></g><g id="Artwork_2-7" data-name="Artwork 2"><g class="cls-10"><g class="cls-10"><path class="cls-3" d="M23.47,80.16c2.17-1.37,9.44,3.38,10.85,9.74,1.53,6.91-4.18,14.33-10.9,16-4.43,1.13-10.44.06-14-4.41-2.53-3.17-4.15-8.46-2.31-11,2-2.71,7.11-.77,7.6-2.4.26-.86-.78-2.62-6.81-6.65l3.74-5.05c5.89,7.82,9.11,10.61,10.44,9.9s-.25-5.16,1.4-6.2" transform="translate(-3.74 -2.9)"/></g></g></g><g id="Artwork_2-8" data-name="Artwork 2"><g class="cls-11"><g class="cls-11"><path class="cls-3" d="M24.85,117.32c.15-2.55,8.24-5.72,14.23-3.17,6.52,2.77,9.24,11.72,6.73,18.18-1.66,4.26-6,8.53-11.72,8.84-4.06.23-9.31-1.52-10.27-4.47-1-3.21,3.5-6.24,2.46-7.59-.55-.71-2.59-.89-9.38,1.69-.64-2-1.28-4-1.93-6,9.79-.26,13.93-1.26,14.12-2.75s-4.35-2.79-4.24-4.75" transform="translate(-3.74 -2.9)"/></g></g></g><g id="Artwork_2-9" data-name="Artwork 2"><g class="cls-12"><g class="cls-13"><path class="cls-3" d="M107.08,147.53c.4,2.53-6.84,7.33-13.24,6.11-7-1.33-11.5-9.5-10.42-16.35.72-4.51,4.08-9.61,9.59-11.12,3.92-1.08,9.42-.48,11,2.21,1.7,2.91-2.1,6.83-.8,7.93.69.58,2.72.32,8.81-3.63l3.15,5.43c-9.51,2.32-13.34,4.18-13.22,5.67s4.84,1.81,5.15,3.75" transform="translate(-3.74 -2.9)"/></g></g></g><g id="Artwork_2-10" data-name="Artwork 2"><g class="cls-14"><g class="cls-15"><path class="cls-3" d="M75.56,147.91c1.17,2.28-4.19,9.11-10.65,10-7,.93-13.9-5.4-15-12.24-.74-4.51.84-10.4,5.6-13.57,3.38-2.26,8.79-3.41,11.12-1.36,2.53,2.23.15,7.15,1.74,7.78.83.34,2.68-.55,7.21-6.21l4.7,4.17C72,141.63,68.91,144.59,69.5,146s5.16.2,6.06,1.94" transform="translate(-3.74 -2.9)"/></g></g></g><g id="Artwork_2-11" data-name="Artwork 2"><g class="cls-16"><g class="cls-16"><path class="cls-3" d="M169.8,101.47c2.14,1.39.88,10-4.31,13.93-5.63,4.28-14.75,2.2-19.12-3.18-2.88-3.55-4.42-9.45-1.86-14.56,1.81-3.64,5.94-7.33,9-6.7,3.3.69,3.68,6.13,5.36,5.9.89-.13,2.06-1.81,3.19-9l6.15,1.29c-4.63,8.62-5.81,12.71-4.62,13.62s4.58-2.39,6.23-1.32" transform="translate(-3.74 -2.9)"/></g></g></g><g id="Artwork_2-12" data-name="Artwork 2"><g class="cls-17"><g class="cls-17"><path class="cls-3" d="M190.33,88.43C190.44,91,182.71,95,176.49,93c-6.76-2.1-10.37-10.73-8.51-17.41,1.22-4.41,5.13-9.09,10.77-10,4-.63,9.41.58,10.66,3.43,1.36,3.08-2.85,6.55-1.68,7.79.62.65,2.66.62,9.16-2.62L199.41,80c-9.71,1.23-13.73,2.64-13.77,4.14s4.6,2.34,4.69,4.3" transform="translate(-3.74 -2.9)"/></g></g></g><g id="Artwork_2-13" data-name="Artwork 2"><g class="cls-18"><g class="cls-19"><path class="cls-3" d="M157.37,71.19c2.15,1.4.89,10-4.3,13.93C147.44,89.41,138.31,87.33,134,82c-2.88-3.55-4.43-9.46-1.87-14.57,1.82-3.63,5.94-7.32,9-6.69,3.3.68,3.68,6.13,5.37,5.9.89-.13,2.06-1.81,3.18-9l6.15,1.29c-4.63,8.62-5.81,12.71-4.61,13.62s4.58-2.39,6.22-1.33" transform="translate(-3.74 -2.9)"/></g></g></g><g id="Artwork_2-14" data-name="Artwork 2"><g class="cls-20"><g class="cls-20"><path class="cls-3" d="M120.24,126.19c-2.39-.91-3-9.58,1.26-14.53,4.6-5.38,14-5.28,19.36-.94,3.57,2.87,6.32,8.31,4.9,13.85-1,3.93-4.26,8.41-7.36,8.43-3.37,0-4.89-5.21-6.49-4.62-.85.31-1.63,2.2-1.22,9.45l-6.28,0c2.71-9.41,3-13.66,1.63-14.29s-4,3.3-5.8,2.61" transform="translate(-3.74 -2.9)"/></g></g></g><g id="Artwork_2-15" data-name="Artwork 2"><g class="cls-21"><g class="cls-21"><path class="cls-3" d="M105.66,100.05c-2.56-.12-5.83-8.16-3.37-14.19,2.68-6.55,11.59-9.39,18.09-7,4.28,1.6,8.61,5.9,9,11.6.28,4.05-1.4,9.32-4.34,10.32-3.19,1.09-6.28-3.41-7.62-2.35-.7.56-.85,2.6,1.82,9.35l-5.95,2c-.39-9.78-1.45-13.9-2.94-14.08s-2.73,4.39-4.69,4.31" transform="translate(-3.74 -2.9)"/></g></g></g><g id="Artwork_2-16" data-name="Artwork 2"><g class="cls-22"><g class="cls-22"><path class="cls-3" d="M86.7,180.3c-2-1.64.31-10,5.93-13.32,6.1-3.58,14.91-.44,18.61,5.43,2.44,3.87,3.27,9.91.12,14.68-2.23,3.39-6.77,6.57-9.71,5.58-3.2-1.07-2.93-6.52-4.63-6.49-.9,0-2.25,1.55-4.23,8.53l-6-2c5.62-8,7.28-11.93,6.2-13s-4.83,1.83-6.34.57" transform="translate(-3.74 -2.9)"/></g></g></g><g id="Artwork_2-17" data-name="Artwork 2"><g class="cls-23"><g class="cls-24"><path class="cls-3" d="M64.77,190.81c.19-2.56,8.34-5.57,14.29-2.91,6.46,2.89,9,11.89,6.38,18.3-1.74,4.23-6.18,8.42-11.89,8.63-4.06.14-9.27-1.71-10.18-4.68-1-3.22,3.62-6.17,2.6-7.53-.53-.72-2.57-.94-9.4,1.51l-1.82-6c9.79-.07,13.94-1,14.17-2.48s-4.3-2.87-4.15-4.82" transform="translate(-3.74 -2.9)"/></g></g></g><g id="Artwork_2-18" data-name="Artwork 2"><g class="cls-25"><g class="cls-25"><path class="cls-3" d="M95.44,211.84c-2-1.64.31-10,5.93-13.32,6.1-3.59,14.91-.44,18.61,5.42,2.44,3.87,3.27,9.92.12,14.69-2.24,3.39-6.77,6.56-9.71,5.57-3.2-1.07-2.93-6.52-4.63-6.49-.9,0-2.26,1.55-4.23,8.54l-6-2c5.62-8,7.28-11.93,6.2-13s-4.83,1.83-6.34.58" transform="translate(-3.74 -2.9)"/></g></g></g><g id="Artwork_2-19" data-name="Artwork 2"><g class="cls-26"><g class="cls-26"><path class="cls-3" d="M138.85,161.65c2.27,1.18,1.81,9.86-3,14.27-5.21,4.79-14.48,3.58-19.33-1.37-3.2-3.27-5.3-9-3.23-14.33,1.47-3.79,5.23-7.84,8.31-7.5,3.36.37,4.24,5.76,5.9,5.36.88-.2,1.88-2,2.33-9.23l6.24.7c-3.8,9-4.59,13.21-3.32,14s4.34-2.81,6.08-1.9" transform="translate(-3.74 -2.9)"/></g></g></g><g id="Artwork_2-20" data-name="Artwork 2"><g class="cls-27"><g class="cls-28"><path class="cls-3" d="M150.22,189.33c2.53.42,4.82,8.79,1.66,14.49-3.44,6.18-12.63,8-18.79,4.77-4.06-2.09-7.85-6.88-7.56-12.58.2-4.06,2.5-9.1,5.53-9.74,3.3-.7,5.84,4.13,7.29,3.24.76-.47,1.15-2.48-.69-9.5l6.15-1.29c-.78,9.76-.22,14,1.24,14.33s3.23-4,5.17-3.72" transform="translate(-3.74 -2.9)"/></g></g></g><g id="Artwork_2-21" data-name="Artwork 2"><g class="cls-29"><g class="cls-29"><path class="cls-3" d="M76.46,111.47c-2-1.64.31-10,5.92-13.32,6.1-3.58,14.92-.44,18.61,5.42,2.44,3.87,3.27,9.92.12,14.69-2.23,3.39-6.76,6.56-9.71,5.58-3.19-1.08-2.92-6.53-4.63-6.5-.89,0-2.25,1.56-4.23,8.54l-6-2c5.63-8,7.28-11.93,6.2-13s-4.83,1.83-6.33.58" transform="translate(-3.74 -2.9)"/></g></g></g><g id="Artwork_2-22" data-name="Artwork 2"><g class="cls-30"><g class="cls-30"><path class="cls-3" d="M13.77,150c.19-2.56,8.34-5.57,14.28-2.91,6.46,2.89,9,11.89,6.38,18.3-1.73,4.23-6.17,8.42-11.88,8.63-4.06.14-9.28-1.71-10.18-4.68-1-3.22,3.61-6.16,2.6-7.53-.54-.72-2.57-.94-9.41,1.51-.6-2-1.21-4-1.82-6,9.8-.07,14-1,14.17-2.48S13.62,152,13.77,150" transform="translate(-3.74 -2.9)"/></g></g></g><g id="Artwork_2-23" data-name="Artwork 2"><g class="cls-31"><g class="cls-31"><path class="cls-3" d="M32.66,183.76c-2-1.64.31-10,5.93-13.32,6.1-3.59,14.91-.44,18.61,5.42,2.43,3.87,3.27,9.92.12,14.69-2.24,3.39-6.77,6.56-9.71,5.57-3.2-1.07-2.93-6.52-4.63-6.49-.9,0-2.26,1.55-4.23,8.54l-6-2c5.62-8,7.28-11.93,6.2-13s-4.83,1.83-6.34.58" transform="translate(-3.74 -2.9)"/></g></g></g><g id="Artwork_2-24" data-name="Artwork 2"><g class="cls-32"><g class="cls-32"><path class="cls-3" d="M219.74,153.61c2.27,1.19,1.82,9.86-3,14.28-5.2,4.79-14.48,3.58-19.33-1.37-3.2-3.27-5.29-9-3.23-14.33,1.47-3.79,5.23-7.85,8.32-7.5,3.35.37,4.24,5.75,5.89,5.36.88-.2,1.88-2,2.33-9.23l6.25.7c-3.81,9-4.6,13.21-3.32,14s4.33-2.81,6.07-1.91" transform="translate(-3.74 -2.9)"/></g></g></g><g id="Artwork_2-25" data-name="Artwork 2"><g class="cls-33"><g class="cls-34"><path class="cls-3" d="M192.69,182.3c2.53.42,4.82,8.79,1.66,14.49-3.44,6.18-12.63,8-18.79,4.77-4.06-2.09-7.85-6.88-7.56-12.59.2-4.05,2.5-9.09,5.53-9.73,3.3-.7,5.84,4.13,7.29,3.24.76-.47,1.15-2.48-.69-9.5l6.15-1.29c-.78,9.76-.22,14,1.24,14.33s3.23-4,5.17-3.72" transform="translate(-3.74 -2.9)"/></g></g></g><g id="Artwork_2-26" data-name="Artwork 2"><g class="cls-35"><g class="cls-35"><path class="cls-3" d="M185.65,122.74c-2-1.64.31-10,5.93-13.32,6.1-3.59,14.91-.44,18.6,5.42,2.44,3.87,3.28,9.92.13,14.69-2.24,3.39-6.77,6.56-9.71,5.57-3.2-1.07-2.93-6.52-4.63-6.49-.9,0-2.26,1.55-4.23,8.54l-6-2c5.63-8,7.29-11.93,6.21-13s-4.84,1.83-6.34.58" transform="translate(-3.74 -2.9)"/></g></g></g><g id="Artwork_2-27" data-name="Artwork 2"><g class="cls-36"><g class="cls-36"><path class="cls-3" d="M209.36,81.55c.2-2.55,8.34-5.56,14.29-2.9,6.46,2.89,9,11.89,6.38,18.3-1.74,4.23-6.17,8.42-11.89,8.62-4.06.15-9.27-1.7-10.17-4.67-1-3.23,3.61-6.17,2.59-7.54-.53-.72-2.57-.93-9.4,1.51-.61-2-1.21-4-1.82-6,9.79-.07,13.94-1,14.17-2.48s-4.3-2.87-4.15-4.83" transform="translate(-3.74 -2.9)"/></g></g></g><g id="Artwork_2-28" data-name="Artwork 2"><g class="cls-37"><g class="cls-37"><path class="cls-3" d="M164.28,47.42c-2-1.65.31-10,5.92-13.33,6.11-3.58,14.92-.43,18.61,5.43,2.44,3.87,3.27,9.91.13,14.68-2.24,3.4-6.77,6.57-9.72,5.58-3.19-1.07-2.92-6.52-4.63-6.49-.89,0-2.25,1.55-4.22,8.54l-6-2c5.63-8,7.28-11.94,6.21-13s-4.84,1.83-6.34.58" transform="translate(-3.74 -2.9)"/></g></g></g><g id="Artwork_2-29" data-name="Artwork 2"><g class="cls-38"><g class="cls-39"><path class="cls-3" d="M179.29,146.11c2.27,1.19,1.82,9.86-3,14.27C171.11,165.17,161.83,164,157,159c-3.2-3.27-5.29-9-3.22-14.32,1.47-3.79,5.23-7.85,8.31-7.51,3.35.37,4.24,5.76,5.9,5.37.87-.21,1.87-2,2.33-9.24l6.24.71c-3.8,9-4.59,13.2-3.32,14s4.34-2.81,6.07-1.9" transform="translate(-3.74 -2.9)"/></g></g></g><g id="Artwork_2-30" data-name="Artwork 2"><g class="cls-40"><g class="cls-41"><path class="cls-3" d="M148.37,19.63c2.53.41,4.83,8.79,1.66,14.48-3.44,6.19-12.62,8-18.78,4.78-4.07-2.1-7.86-6.88-7.57-12.59.21-4.06,2.5-9.09,5.54-9.73,3.3-.7,5.83,4.13,7.28,3.24.77-.47,1.16-2.48-.69-9.5L142,9c-.78,9.77-.21,14,1.25,14.33s3.23-4,5.16-3.71" transform="translate(-3.74 -2.9)"/></g></g></g></g></g></svg>