<svg xmlns="http://www.w3.org/2000/svg" viewBox="0 0 201 211.92"><defs><style>.cls-1{fill:#f6b1b3;}</style></defs><title>Ham</title><g id="Layer_2" data-name="Layer 2"><g id="Ham"><rect class="cls-1" x="7.33" y="65" width="21.33" height="21.33"/><rect class="cls-1" x="107" width="21.33" height="21.33"/><rect class="cls-1" x="71.67" y="9.83" width="21.33" height="21.33"/><rect class="cls-1" x="39.67" y="34.58" width="21.33" height="21.33"/><rect class="cls-1" x="122" y="101.92" width="21.33" height="21.33"/><rect class="cls-1" y="116.83" width="21.33" height="21.33"/><rect class="cls-1" x="61" y="91.25" width="21.33" height="21.33"/><rect class="cls-1" x="107" y="184.33" width="21.33" height="21.33"/><rect class="cls-1" x="163.67" y="153.83" width="21.33" height="21.33"/><rect class="cls-1" x="61" y="190.59" width="21.33" height="21.33"/><rect class="cls-1" x="158.33" y="65" width="21.33" height="21.33"/><rect class="cls-1" x="179.67" y="120.33" width="21.33" height="21.33"/><rect class="cls-1" x="158.33" y="20.5" width="21.33" height="21.33"/><rect class="cls-1" x="111.33" y="54.33" width="21.33" height="21.33"/><rect class="cls-1" x="117.67" y="143.17" width="21.33" height="21.33"/><rect class="cls-1" x="10.67" y="154.59" width="21.33" height="21.33"/><rect class="cls-1" x="64.17" y="154.59" width="21.33" height="21.33"/></g></g></svg>