<svg xmlns="http://www.w3.org/2000/svg" xmlns:xlink="http://www.w3.org/1999/xlink" viewBox="0 0 209.05 208.93"><defs><style>.cls-1{fill:none;}.cls-2{clip-path:url(#clip-path);}.cls-3{fill:#ffe7b6;}.cls-4{clip-path:url(#clip-path-3);}.cls-5{clip-path:url(#clip-path-5);}.cls-6{clip-path:url(#clip-path-7);}.cls-7{clip-path:url(#clip-path-8);}.cls-8{clip-path:url(#clip-path-9);}.cls-9{clip-path:url(#clip-path-11);}.cls-10{clip-path:url(#clip-path-13);}.cls-11{clip-path:url(#clip-path-15);}.cls-12{clip-path:url(#clip-path-16);}.cls-13{clip-path:url(#clip-path-17);}.cls-14{clip-path:url(#clip-path-19);}.cls-15{clip-path:url(#clip-path-21);}.cls-16{clip-path:url(#clip-path-22);}.cls-17{clip-path:url(#clip-path-23);}.cls-18{clip-path:url(#clip-path-24);}.cls-19{clip-path:url(#clip-path-25);}.cls-20{clip-path:url(#clip-path-27);}</style><clipPath id="clip-path" transform="translate(-3.74 -8.2)"><rect class="cls-1" x="13.96" y="68.54" width="31.53" height="29.4" transform="translate(-43.74 34.09) rotate(-36.56)"/></clipPath><clipPath id="clip-path-3" transform="translate(-3.74 -8.2)"><rect class="cls-1" x="111.83" y="6.85" width="31.53" height="29.4" transform="translate(27.29 103.3) rotate(-48.77)"/></clipPath><clipPath id="clip-path-5" transform="translate(-3.74 -8.2)"><rect class="cls-1" x="55.07" y="27.09" width="31.53" height="29.4" transform="translate(4.75 90.76) rotate(-67.08)"/></clipPath><clipPath id="clip-path-7" transform="translate(-3.74 -8.2)"><rect class="cls-1" x="65.82" y="71.86" width="29.4" height="31.53"/></clipPath><clipPath id="clip-path-8" transform="translate(-3.74 -8.2)"><rect class="cls-1" x="65.82" y="71.86" width="29.4" height="31.53"/></clipPath><clipPath id="clip-path-9" transform="translate(-3.74 -8.2)"><rect class="cls-1" x="90.38" y="188.95" width="31.53" height="29.4" transform="translate(-98.49 99.41) rotate(-35.48)"/></clipPath><clipPath id="clip-path-11" transform="translate(-3.74 -8.2)"><rect class="cls-1" x="70.79" y="129.51" width="29.4" height="31.53"/></clipPath><clipPath id="clip-path-13" transform="translate(-3.74 -8.2)"><rect class="cls-1" x="112.9" y="64.79" width="29.4" height="31.53" transform="translate(-14.15 28.79) rotate(-12.2)"/></clipPath><clipPath id="clip-path-15" transform="translate(-3.74 -8.2)"><rect class="cls-1" x="120.09" y="117.15" width="29.4" height="31.53" transform="matrix(0.86, -0.51, 0.51, 0.86, -48.82, 86.85)"/></clipPath><clipPath id="clip-path-16" transform="translate(-3.74 -8.2)"><rect class="cls-1" x="120.09" y="117.15" width="29.4" height="31.53" transform="translate(-48.82 86.85) rotate(-30.52)"/></clipPath><clipPath id="clip-path-17" transform="translate(-3.74 -8.2)"><rect class="cls-1" x="5.6" y="119.46" width="31.53" height="29.4" transform="translate(-73.89 37.31) rotate(-35.48)"/></clipPath><clipPath id="clip-path-19" transform="translate(-3.74 -8.2)"><rect class="cls-1" x="22.71" y="166.77" width="29.4" height="31.53"/></clipPath><clipPath id="clip-path-21" transform="translate(-3.74 -8.2)"><rect class="cls-1" x="184.08" y="139.51" width="29.4" height="31.53" transform="translate(-28.33 45.53) rotate(-12.2)"/></clipPath><clipPath id="clip-path-22" transform="translate(-3.74 -8.2)"><rect class="cls-1" x="184.08" y="139.51" width="29.4" height="31.53" transform="translate(-28.33 45.53) rotate(-12.2)"/></clipPath><clipPath id="clip-path-23" transform="translate(-3.74 -8.2)"><rect class="cls-1" x="158.56" y="172.05" width="29.4" height="31.53" transform="matrix(0.86, -0.51, 0.51, 0.86, -71.37, 113.99)"/></clipPath><clipPath id="clip-path-24" transform="translate(-3.74 -8.2)"><rect class="cls-1" x="158.56" y="172.05" width="29.4" height="31.53" transform="translate(-71.37 113.99) rotate(-30.52)"/></clipPath><clipPath id="clip-path-25" transform="translate(-3.74 -8.2)"><rect class="cls-1" x="175.69" y="105.75" width="29.4" height="31.53"/></clipPath><clipPath id="clip-path-27" transform="translate(-3.74 -8.2)"><rect class="cls-1" x="161.34" y="53.34" width="29.4" height="31.53" transform="translate(-10.63 38.77) rotate(-12.2)"/></clipPath></defs><title>Mushrooms</title><g id="Layer_2" data-name="Layer 2"><g id="Mushrooms"><g id="Artwork_2" data-name="Artwork 2"><g class="cls-2"><g class="cls-2"><path class="cls-3" d="M21.92,72.84c.15-2.56,8.24-5.72,14.23-3.18,6.52,2.77,9.24,11.72,6.73,18.18-1.65,4.26-6,8.53-11.72,8.85-4.05.22-9.3-1.53-10.26-4.48-1-3.21,3.49-6.24,2.45-7.59-.55-.71-2.59-.88-9.37,1.69-.65-2-1.29-4-1.94-6,9.79-.26,13.93-1.27,14.12-2.75s-4.35-2.79-4.24-4.75" transform="translate(-3.74 -8.2)"/></g></g></g><g id="Artwork_2-2" data-name="Artwork 2"><g class="cls-4"><g class="cls-4"><path class="cls-3" d="M137.43,30.07c.39,2.53-6.84,7.33-13.24,6.11-7-1.33-11.51-9.5-10.42-16.35.72-4.52,4.07-9.61,9.59-11.12,3.91-1.08,9.41-.48,11,2.2,1.69,2.92-2.1,6.84-.8,7.94.69.58,2.72.32,8.81-3.64l3.15,5.44C136,23,132.16,24.83,132.28,26.32s4.84,1.81,5.15,3.75" transform="translate(-3.74 -8.2)"/></g></g></g><g id="Artwork_2-3" data-name="Artwork 2"><g class="cls-5"><g class="cls-5"><path class="cls-3" d="M82.84,46.79c1.17,2.28-4.19,9.11-10.65,10-7,.93-13.9-5.4-15-12.24-.74-4.51.84-10.4,5.6-13.57,3.38-2.26,8.79-3.41,11.12-1.36,2.53,2.24.15,7.15,1.74,7.78.83.34,2.68-.55,7.21-6.21l4.7,4.17c-8.3,5.19-11.35,8.15-10.76,9.53s5.16.2,6.06,1.94" transform="translate(-3.74 -8.2)"/></g></g></g><g id="Artwork_2-4" data-name="Artwork 2"><g class="cls-6"><g class="cls-7"><path class="cls-3" d="M67.52,87.7c-2-1.64.31-10,5.92-13.32,6.11-3.59,14.92-.44,18.61,5.42,2.44,3.87,3.27,9.92.13,14.69-2.24,3.39-6.77,6.56-9.72,5.57-3.19-1.07-2.92-6.52-4.63-6.49-.89,0-2.25,1.55-4.22,8.54l-6-2c5.63-8,7.28-11.94,6.21-13S69,89,67.52,87.7" transform="translate(-3.74 -8.2)"/></g></g></g><g id="Artwork_2-5" data-name="Artwork 2"><g class="cls-8"><g class="cls-8"><path class="cls-3" d="M98.54,193.11c.2-2.56,8.34-5.57,14.29-2.91,6.46,2.89,9,11.89,6.38,18.3-1.73,4.23-6.17,8.42-11.88,8.63-4.06.14-9.28-1.71-10.18-4.68-1-3.22,3.61-6.16,2.6-7.53-.54-.72-2.58-.94-9.41,1.51l-1.82-6c9.79-.07,14-1,14.17-2.48s-4.3-2.87-4.15-4.82" transform="translate(-3.74 -8.2)"/></g></g></g><g id="Artwork_2-6" data-name="Artwork 2"><g class="cls-9"><g class="cls-9"><path class="cls-3" d="M72.48,145.35c-2-1.64.31-10,5.93-13.32,6.1-3.58,14.91-.44,18.61,5.42,2.43,3.87,3.27,9.92.12,14.69-2.24,3.39-6.77,6.56-9.71,5.58-3.2-1.08-2.93-6.53-4.63-6.49-.9,0-2.26,1.55-4.23,8.53l-5.95-2c5.62-8,7.28-11.93,6.2-13s-4.83,1.83-6.34.57" transform="translate(-3.74 -8.2)"/></g></g></g><g id="Artwork_2-7" data-name="Artwork 2"><g class="cls-10"><g class="cls-10"><path class="cls-3" d="M140.29,77.74c2.27,1.19,1.82,9.86-3,14.27-5.21,4.8-14.49,3.58-19.34-1.37-3.2-3.26-5.29-9-3.22-14.32,1.47-3.79,5.23-7.85,8.31-7.51,3.35.38,4.24,5.76,5.9,5.37.87-.21,1.88-2,2.33-9.24l6.24.71c-3.8,9-4.59,13.2-3.32,14s4.34-2.81,6.07-1.9" transform="translate(-3.74 -8.2)"/></g></g></g><g id="Artwork_2-8" data-name="Artwork 2"><g class="cls-11"><g class="cls-12"><path class="cls-3" d="M146,126.26c2.53.41,4.82,8.79,1.66,14.48-3.44,6.19-12.63,7.95-18.79,4.78-4.06-2.1-7.85-6.88-7.56-12.59.2-4.06,2.5-9.09,5.53-9.74,3.3-.7,5.84,4.14,7.29,3.24.76-.47,1.15-2.48-.69-9.5l6.14-1.29c-.77,9.76-.21,14,1.25,14.33s3.23-4,5.17-3.71" transform="translate(-3.74 -8.2)"/></g></g></g><g id="Artwork_2-9" data-name="Artwork 2"><g class="cls-13"><g class="cls-13"><path class="cls-3" d="M13.77,123.61c.19-2.56,8.34-5.57,14.28-2.91,6.46,2.89,9,11.89,6.38,18.3-1.73,4.24-6.17,8.42-11.88,8.63-4.06.14-9.28-1.7-10.18-4.67-1-3.23,3.61-6.17,2.6-7.54-.54-.72-2.57-.94-9.41,1.51-.6-2-1.21-4-1.82-6,9.8-.07,14-1,14.17-2.47s-4.29-2.88-4.14-4.83" transform="translate(-3.74 -8.2)"/></g></g></g><g id="Artwork_2-10" data-name="Artwork 2"><g class="cls-14"><g class="cls-14"><path class="cls-3" d="M24.4,182.6c-2-1.64.31-10,5.93-13.32,6.1-3.58,14.91-.44,18.6,5.43,2.44,3.87,3.28,9.91.13,14.68-2.24,3.39-6.77,6.57-9.71,5.58-3.2-1.07-2.93-6.52-4.63-6.49-.9,0-2.26,1.55-4.23,8.54l-5.95-2c5.62-8,7.28-11.94,6.2-13s-4.83,1.83-6.34.57" transform="translate(-3.74 -8.2)"/></g></g></g><g id="Artwork_2-11" data-name="Artwork 2"><g class="cls-15"><g class="cls-16"><path class="cls-3" d="M211.48,152.46c2.27,1.19,1.81,9.86-3,14.27-5.2,4.79-14.48,3.58-19.33-1.37-3.2-3.26-5.3-9-3.23-14.32,1.47-3.79,5.23-7.85,8.32-7.51,3.35.37,4.23,5.76,5.89,5.37.88-.21,1.88-2,2.33-9.24l6.25.71c-3.81,9-4.6,13.2-3.32,14s4.33-2.81,6.07-1.9" transform="translate(-3.74 -8.2)"/></g></g></g><g id="Artwork_2-12" data-name="Artwork 2"><g class="cls-17"><g class="cls-18"><path class="cls-3" d="M184.43,181.15c2.53.41,4.82,8.79,1.66,14.48-3.44,6.19-12.63,8-18.79,4.78-4.06-2.1-7.85-6.88-7.56-12.59.2-4.06,2.5-9.09,5.53-9.74,3.3-.7,5.84,4.14,7.29,3.24.76-.47,1.15-2.48-.7-9.5l6.15-1.29c-.77,9.76-.21,14,1.25,14.33s3.23-4,5.17-3.71" transform="translate(-3.74 -8.2)"/></g></g></g><g id="Artwork_2-13" data-name="Artwork 2"><g class="cls-19"><g class="cls-19"><path class="cls-3" d="M177.39,121.58c-2-1.64.31-10,5.92-13.32,6.11-3.58,14.92-.44,18.61,5.43,2.44,3.87,3.27,9.91.13,14.68-2.24,3.39-6.77,6.57-9.72,5.58-3.19-1.07-2.92-6.52-4.63-6.49-.89,0-2.25,1.55-4.22,8.54l-6-2c5.63-8,7.28-11.94,6.21-13s-4.84,1.83-6.34.57" transform="translate(-3.74 -8.2)"/></g></g></g><g id="Artwork_2-14" data-name="Artwork 2"><g class="cls-20"><g class="cls-20"><path class="cls-3" d="M188.73,66.29c2.27,1.19,1.82,9.86-3,14.27-5.21,4.79-14.49,3.58-19.34-1.37-3.2-3.27-5.29-9-3.22-14.32,1.47-3.79,5.23-7.85,8.31-7.51,3.35.37,4.24,5.76,5.9,5.37.87-.21,1.87-2,2.33-9.24l6.24.71c-3.8,9-4.59,13.2-3.32,14s4.34-2.81,6.07-1.9" transform="translate(-3.74 -8.2)"/></g></g></g></g></g></svg>