<svg xmlns="http://www.w3.org/2000/svg" xmlns:xlink="http://www.w3.org/1999/xlink" viewBox="0 0 208.65 214.42"><defs><style>.cls-1,.cls-5{fill:none;}.cls-2{clip-path:url(#clip-path);}.cls-3{clip-path:url(#clip-path-2);}.cls-4{fill:#1d1d1b;}.cls-5{stroke:#1d1d1b;stroke-miterlimit:10;stroke-width:2px;}.cls-6{clip-path:url(#clip-path-3);}.cls-7{clip-path:url(#clip-path-5);}.cls-8{clip-path:url(#clip-path-7);}.cls-9{clip-path:url(#clip-path-9);}.cls-10{clip-path:url(#clip-path-11);}.cls-11{clip-path:url(#clip-path-13);}.cls-12{clip-path:url(#clip-path-15);}.cls-13{clip-path:url(#clip-path-17);}.cls-14{clip-path:url(#clip-path-19);}.cls-15{clip-path:url(#clip-path-21);}.cls-16{clip-path:url(#clip-path-23);}.cls-17{clip-path:url(#clip-path-24);}.cls-18{clip-path:url(#clip-path-25);}.cls-19{clip-path:url(#clip-path-27);}.cls-20{clip-path:url(#clip-path-29);}.cls-21{clip-path:url(#clip-path-31);}.cls-22{clip-path:url(#clip-path-32);}.cls-23{clip-path:url(#clip-path-33);}.cls-24{clip-path:url(#clip-path-34);}.cls-25{clip-path:url(#clip-path-35);}</style><clipPath id="clip-path" transform="translate(0 0)"><rect class="cls-1" x="33.61" y="146.05" width="23.07" height="23.07" transform="translate(-101.56 84.45) rotate(-47.52)"/></clipPath><clipPath id="clip-path-2" transform="translate(0 0)"><rect class="cls-1" x="33.61" y="146.05" width="23.07" height="23.07" transform="translate(-101.56 84.45) rotate(-47.52)"/></clipPath><clipPath id="clip-path-3" transform="translate(0 0)"><rect class="cls-1" x="167.25" y="52.05" width="23.07" height="23.07"/></clipPath><clipPath id="clip-path-5" transform="translate(0 0)"><rect class="cls-1" x="102.32" y="191.35" width="23.07" height="23.07"/></clipPath><clipPath id="clip-path-7" transform="translate(0 0)"><rect class="cls-1" x="73.41" y="162.34" width="23.07" height="23.07"/></clipPath><clipPath id="clip-path-9" transform="translate(0 0)"><rect class="cls-1" x="144.18" y="138.1" width="23.07" height="23.07"/></clipPath><clipPath id="clip-path-11" transform="translate(0 0)"><rect class="cls-1" x="93.78" width="23.07" height="23.07"/></clipPath><clipPath id="clip-path-13" transform="translate(0 0)"><rect class="cls-1" x="30.44" y="49.02" width="23.07" height="23.07"/></clipPath><clipPath id="clip-path-15" transform="translate(0 0)"><rect class="cls-1" x="45.14" y="95.15" width="23.07" height="23.07"/></clipPath><clipPath id="clip-path-17" transform="translate(0 0)"><rect class="cls-1" x="87.03" y="72.08" width="23.07" height="23.07"/></clipPath><clipPath id="clip-path-19" transform="translate(0 0)"><rect class="cls-1" y="95.15" width="23.07" height="23.07"/></clipPath><clipPath id="clip-path-21" transform="translate(0 0)"><rect class="cls-1" x="41.97" y="11.53" width="23.07" height="23.07"/></clipPath><clipPath id="clip-path-23" transform="translate(0 0)"><rect class="cls-1" x="117.38" y="45.35" width="23.07" height="23.07"/></clipPath><clipPath id="clip-path-24" transform="translate(0 0)"><rect class="cls-1" x="117.38" y="45.35" width="23.07" height="23.07"/></clipPath><clipPath id="clip-path-25" transform="translate(0 0)"><rect class="cls-1" x="70.72" y="28.98" width="23.07" height="23.07"/></clipPath><clipPath id="clip-path-27" transform="translate(0 0)"><rect class="cls-1" x="128.92" y="91.73" width="23.07" height="23.07"/></clipPath><clipPath id="clip-path-29" transform="translate(0 0)"><rect class="cls-1" x="135.12" y="11.53" width="23.07" height="23.07"/></clipPath><clipPath id="clip-path-31" transform="translate(0 0)"><rect class="cls-1" x="146.65" y="179.82" width="23.07" height="23.07"/></clipPath><clipPath id="clip-path-32" transform="translate(0 0)"><rect class="cls-1" x="146.65" y="179.82" width="23.07" height="23.07"/></clipPath><clipPath id="clip-path-33" transform="translate(0 0)"><rect class="cls-1" x="185.58" y="93.5" width="23.07" height="23.07"/></clipPath><clipPath id="clip-path-34" transform="translate(0 0)"><rect class="cls-1" x="185.58" y="93.5" width="23.07" height="23.07"/></clipPath><clipPath id="clip-path-35" transform="translate(0 0)"><rect class="cls-1" x="95.94" y="126.57" width="23.07" height="23.07"/></clipPath></defs><title>Olives</title><g id="Layer_2" data-name="Layer 2"><g id="Olives"><g id="Artwork_3" data-name="Artwork 3"><g class="cls-2"><g class="cls-3"><path class="cls-4" d="M55.66,158.23A10.53,10.53,0,1,0,44.5,168.1a10.54,10.54,0,0,0,11.16-9.87m-16.25-1a5.75,5.75,0,1,1,5.38,6.19,5.79,5.79,0,0,1-5.38-6.19" transform="translate(0 0)"/><path class="cls-5" d="M55.66,158.23A10.53,10.53,0,1,0,44.5,168.1,10.54,10.54,0,0,0,55.66,158.23Zm-16.25-1a5.75,5.75,0,1,1,5.38,6.19A5.79,5.79,0,0,1,39.41,157.23Z" transform="translate(0 0)"/></g></g></g><g id="Artwork_3-2" data-name="Artwork 3"><g class="cls-6"><g class="cls-6"><path class="cls-4" d="M187,57a10.54,10.54,0,1,0-1.57,14.81A10.55,10.55,0,0,0,187,57M174.32,67.2a5.75,5.75,0,1,1,8.14.93,5.79,5.79,0,0,1-8.14-.93" transform="translate(0 0)"/><path class="cls-5" d="M187,57a10.54,10.54,0,1,0-1.57,14.81A10.55,10.55,0,0,0,187,57ZM174.32,67.2a5.75,5.75,0,1,1,8.14.93A5.79,5.79,0,0,1,174.32,67.2Z" transform="translate(0 0)"/></g></g></g><g id="Artwork_3-3" data-name="Artwork 3"><g class="cls-7"><g class="cls-7"><path class="cls-4" d="M122,196.27a10.53,10.53,0,1,0-1.56,14.8,10.53,10.53,0,0,0,1.56-14.8M109.39,206.5a5.75,5.75,0,1,1,8.14.93,5.79,5.79,0,0,1-8.14-.93" transform="translate(0 0)"/><path class="cls-5" d="M122,196.27a10.53,10.53,0,1,0-1.56,14.8A10.53,10.53,0,0,0,122,196.27ZM109.39,206.5a5.75,5.75,0,1,1,8.14.93A5.79,5.79,0,0,1,109.39,206.5Z" transform="translate(0 0)"/></g></g></g><g id="Artwork_3-4" data-name="Artwork 3"><g class="cls-8"><g class="cls-8"><path class="cls-4" d="M93.14,167.26a10.54,10.54,0,1,0-1.57,14.81,10.54,10.54,0,0,0,1.57-14.81M80.48,177.49a5.75,5.75,0,1,1,8.14.93,5.79,5.79,0,0,1-8.14-.93" transform="translate(0 0)"/><path class="cls-5" d="M93.14,167.26a10.54,10.54,0,1,0-1.57,14.81A10.54,10.54,0,0,0,93.14,167.26ZM80.48,177.49a5.75,5.75,0,1,1,8.14.93A5.79,5.79,0,0,1,80.48,177.49Z" transform="translate(0 0)"/></g></g></g><g id="Artwork_3-5" data-name="Artwork 3"><g class="cls-9"><g class="cls-9"><path class="cls-4" d="M163.91,143a10.53,10.53,0,1,0-1.57,14.8,10.53,10.53,0,0,0,1.57-14.8m-12.66,10.23a5.75,5.75,0,1,1,8.14.93,5.79,5.79,0,0,1-8.14-.93" transform="translate(0 0)"/><path class="cls-5" d="M163.91,143a10.53,10.53,0,1,0-1.57,14.8A10.53,10.53,0,0,0,163.91,143Zm-12.66,10.23a5.75,5.75,0,1,1,8.14.93A5.79,5.79,0,0,1,151.25,153.25Z" transform="translate(0 0)"/></g></g></g><g id="Artwork_3-6" data-name="Artwork 3"><g class="cls-10"><g class="cls-10"><path class="cls-4" d="M113.51,4.91a10.53,10.53,0,1,0-1.57,14.81,10.54,10.54,0,0,0,1.57-14.81M100.85,15.15a5.75,5.75,0,1,1,8.94-7.23,5.75,5.75,0,1,1-8.94,7.23" transform="translate(0 0)"/><path class="cls-5" d="M113.51,4.91a10.53,10.53,0,1,0-1.57,14.81A10.54,10.54,0,0,0,113.51,4.91ZM100.85,15.15a5.75,5.75,0,1,1,8.94-7.23,5.75,5.75,0,1,1-8.94,7.23Z" transform="translate(0 0)"/></g></g></g><g id="Artwork_3-7" data-name="Artwork 3"><g class="cls-11"><g class="cls-11"><path class="cls-4" d="M50.17,53.93A10.54,10.54,0,1,0,48.6,68.74a10.54,10.54,0,0,0,1.57-14.81M37.51,64.17a5.75,5.75,0,1,1,8.14.92,5.8,5.8,0,0,1-8.14-.92" transform="translate(0 0)"/><path class="cls-5" d="M50.17,53.93A10.54,10.54,0,1,0,48.6,68.74,10.54,10.54,0,0,0,50.17,53.93ZM37.51,64.17a5.75,5.75,0,1,1,8.14.92A5.8,5.8,0,0,1,37.51,64.17Z" transform="translate(0 0)"/></g></g></g><g id="Artwork_3-8" data-name="Artwork 3"><g class="cls-12"><g class="cls-12"><path class="cls-4" d="M64.87,100.07a10.53,10.53,0,1,0-1.57,14.81,10.53,10.53,0,0,0,1.57-14.81M52.21,110.3a5.75,5.75,0,1,1,8.15.93,5.79,5.79,0,0,1-8.15-.93" transform="translate(0 0)"/><path class="cls-5" d="M64.87,100.07a10.53,10.53,0,1,0-1.57,14.81A10.53,10.53,0,0,0,64.87,100.07ZM52.21,110.3a5.75,5.75,0,1,1,8.15.93A5.79,5.79,0,0,1,52.21,110.3Z" transform="translate(0 0)"/></g></g></g><g id="Artwork_3-9" data-name="Artwork 3"><g class="cls-13"><g class="cls-13"><path class="cls-4" d="M106.76,77a10.54,10.54,0,1,0-1.57,14.81A10.54,10.54,0,0,0,106.76,77M94.1,87.23a5.75,5.75,0,1,1,8.14.93,5.79,5.79,0,0,1-8.14-.93" transform="translate(0 0)"/><path class="cls-5" d="M106.76,77a10.54,10.54,0,1,0-1.57,14.81A10.54,10.54,0,0,0,106.76,77ZM94.1,87.23a5.75,5.75,0,1,1,8.14.93A5.79,5.79,0,0,1,94.1,87.23Z" transform="translate(0 0)"/></g></g></g><g id="Artwork_3-10" data-name="Artwork 3"><g class="cls-14"><g class="cls-14"><path class="cls-4" d="M19.73,100.07a10.53,10.53,0,1,0-1.57,14.81,10.54,10.54,0,0,0,1.57-14.81M7.07,110.3a5.75,5.75,0,1,1,8.14.93,5.79,5.79,0,0,1-8.14-.93" transform="translate(0 0)"/><path class="cls-5" d="M19.73,100.07a10.53,10.53,0,1,0-1.57,14.81A10.54,10.54,0,0,0,19.73,100.07ZM7.07,110.3a5.75,5.75,0,1,1,8.14.93A5.79,5.79,0,0,1,7.07,110.3Z" transform="translate(0 0)"/></g></g></g><g id="Artwork_3-11" data-name="Artwork 3"><g class="cls-15"><g class="cls-15"><path class="cls-4" d="M61.7,16.45a10.53,10.53,0,1,0-1.56,14.81A10.53,10.53,0,0,0,61.7,16.45M49,26.68a5.75,5.75,0,1,1,8.15.93A5.79,5.79,0,0,1,49,26.68" transform="translate(0 0)"/><path class="cls-5" d="M61.7,16.45a10.53,10.53,0,1,0-1.56,14.81A10.53,10.53,0,0,0,61.7,16.45ZM49,26.68a5.75,5.75,0,1,1,8.15.93A5.79,5.79,0,0,1,49,26.68Z" transform="translate(0 0)"/></g></g></g><g id="Artwork_3-12" data-name="Artwork 3"><g class="cls-16"><g class="cls-17"><path class="cls-4" d="M137.11,50.27a10.53,10.53,0,1,0-1.57,14.81,10.53,10.53,0,0,0,1.57-14.81M124.45,60.5a5.75,5.75,0,1,1,8.14.93,5.79,5.79,0,0,1-8.14-.93" transform="translate(0 0)"/><path class="cls-5" d="M137.11,50.27a10.53,10.53,0,1,0-1.57,14.81A10.53,10.53,0,0,0,137.11,50.27ZM124.45,60.5a5.75,5.75,0,1,1,8.14.93A5.79,5.79,0,0,1,124.45,60.5Z" transform="translate(0 0)"/></g></g></g><g id="Artwork_3-13" data-name="Artwork 3"><g class="cls-18"><g class="cls-18"><path class="cls-4" d="M90.44,33.9a10.53,10.53,0,1,0-1.56,14.81A10.53,10.53,0,0,0,90.44,33.9M77.78,44.13a5.75,5.75,0,1,1,8.15.93,5.79,5.79,0,0,1-8.15-.93" transform="translate(0 0)"/><path class="cls-5" d="M90.44,33.9a10.53,10.53,0,1,0-1.56,14.81A10.53,10.53,0,0,0,90.44,33.9ZM77.78,44.13a5.75,5.75,0,1,1,8.15.93A5.79,5.79,0,0,1,77.78,44.13Z" transform="translate(0 0)"/></g></g></g><g id="Artwork_3-14" data-name="Artwork 3"><g class="cls-19"><g class="cls-19"><path class="cls-4" d="M148.64,96.64a10.53,10.53,0,1,0-1.56,14.81,10.53,10.53,0,0,0,1.56-14.81M136,106.88a5.75,5.75,0,1,1,8.15.92,5.8,5.8,0,0,1-8.15-.92" transform="translate(0 0)"/><path class="cls-5" d="M148.64,96.64a10.53,10.53,0,1,0-1.56,14.81A10.53,10.53,0,0,0,148.64,96.64ZM136,106.88a5.75,5.75,0,1,1,8.15.92A5.8,5.8,0,0,1,136,106.88Z" transform="translate(0 0)"/></g></g></g><g id="Artwork_3-15" data-name="Artwork 3"><g class="cls-20"><g class="cls-20"><path class="cls-4" d="M154.84,16.45a10.53,10.53,0,1,0-1.56,14.81,10.53,10.53,0,0,0,1.56-14.81M142.18,26.68a5.75,5.75,0,1,1,8.15.93,5.79,5.79,0,0,1-8.15-.93" transform="translate(0 0)"/><path class="cls-5" d="M154.84,16.45a10.53,10.53,0,1,0-1.56,14.81A10.53,10.53,0,0,0,154.84,16.45ZM142.18,26.68a5.75,5.75,0,1,1,8.15.93A5.79,5.79,0,0,1,142.18,26.68Z" transform="translate(0 0)"/></g></g></g><g id="Artwork_3-16" data-name="Artwork 3"><g class="cls-21"><g class="cls-22"><path class="cls-4" d="M166.38,184.73a10.54,10.54,0,1,0-1.57,14.81,10.54,10.54,0,0,0,1.57-14.81M153.72,195a5.75,5.75,0,1,1,8.14.92,5.8,5.8,0,0,1-8.14-.92" transform="translate(0 0)"/><path class="cls-5" d="M166.38,184.73a10.54,10.54,0,1,0-1.57,14.81A10.54,10.54,0,0,0,166.38,184.73ZM153.72,195a5.75,5.75,0,1,1,8.14.92A5.8,5.8,0,0,1,153.72,195Z" transform="translate(0 0)"/></g></g></g><g id="Artwork_3-17" data-name="Artwork 3"><g class="cls-23"><g class="cls-24"><path class="cls-4" d="M205.31,98.42a10.53,10.53,0,1,0-1.57,14.8,10.53,10.53,0,0,0,1.57-14.8m-12.66,10.23a5.75,5.75,0,1,1,8.15.93,5.79,5.79,0,0,1-8.15-.93" transform="translate(0 0)"/><path class="cls-5" d="M205.31,98.42a10.53,10.53,0,1,0-1.57,14.8A10.53,10.53,0,0,0,205.31,98.42Zm-12.66,10.23a5.75,5.75,0,1,1,8.15.93A5.79,5.79,0,0,1,192.65,108.65Z" transform="translate(0 0)"/></g></g></g><g id="Artwork_3-18" data-name="Artwork 3"><g class="cls-25"><g class="cls-25"><path class="cls-4" d="M115.66,131.48a10.53,10.53,0,1,0-1.56,14.81,10.53,10.53,0,0,0,1.56-14.81M103,141.72a5.75,5.75,0,1,1,8.15.92,5.8,5.8,0,0,1-8.15-.92" transform="translate(0 0)"/><path class="cls-5" d="M115.66,131.48a10.53,10.53,0,1,0-1.56,14.81A10.53,10.53,0,0,0,115.66,131.48ZM103,141.72a5.75,5.75,0,1,1,8.15.92A5.8,5.8,0,0,1,103,141.72Z" transform="translate(0 0)"/></g></g></g></g></g></svg>