<svg xmlns="http://www.w3.org/2000/svg" viewBox="0 0 200.97 203.81"><defs><style>.cls-1{fill:#f0cde3;stroke:#662483;stroke-miterlimit:10;stroke-width:2px;}</style></defs><title>Onions</title><g id="Layer_2" data-name="Layer 2"><g id="Onions"><path class="cls-1" d="M31.35,100.44c25.64-5.2,52,18.07,58.83,52"/><path class="cls-1" d="M131.05,149.45c.24,26.16-27.6,47.59-62.23,47.91"/><path class="cls-1" d="M57,194c-26-3.17-43.6-33.55-39.4-67.94"/><path class="cls-1" d="M95.71,96.17c0-26.16,28-47.34,62.67-47.34"/><path class="cls-1" d="M73.64,56.86C66.36,82,33.55,94.53.28,84.9"/><path class="cls-1" d="M138.3,134.11c0-26.16,28-47.33,62.67-47.33"/><path class="cls-1" d="M195.28,144c5.2,25.65-18.07,52-52,58.85"/><path class="cls-1" d="M82.1,17C72.59,41.38,38.78,50.91,6.51,38.32"/><path class="cls-1" d="M71.91,12.16c18.54-18.45,53.32-13.52,77.75,11"/></g></g></svg>