<svg xmlns="http://www.w3.org/2000/svg" xmlns:xlink="http://www.w3.org/1999/xlink" viewBox="0 0 207.51 193.05"><defs><style>.cls-1{fill:none;}.cls-2{clip-path:url(#clip-path);}.cls-3{fill:#349738;}.cls-4{clip-path:url(#clip-path-2);}.cls-5{clip-path:url(#clip-path-3);}.cls-6{clip-path:url(#clip-path-4);}.cls-7{clip-path:url(#clip-path-5);}.cls-8{clip-path:url(#clip-path-6);}.cls-9{clip-path:url(#clip-path-7);}.cls-10{clip-path:url(#clip-path-8);}.cls-11{clip-path:url(#clip-path-9);}.cls-12{clip-path:url(#clip-path-10);}.cls-13{clip-path:url(#clip-path-11);}.cls-14{clip-path:url(#clip-path-12);}</style><clipPath id="clip-path" transform="translate(-1.08 -3.37)"><rect class="cls-1" x="77.38" y="166.29" width="33.11" height="31.21"/></clipPath><clipPath id="clip-path-2" transform="translate(-1.08 -3.37)"><rect class="cls-1" y="109.17" width="33.11" height="31.21"/></clipPath><clipPath id="clip-path-3" transform="translate(-1.08 -3.37)"><rect class="cls-1" x="11.49" y="43.54" width="33.11" height="31.21"/></clipPath><clipPath id="clip-path-4" transform="translate(-1.08 -3.37)"><rect class="cls-1" x="127.35" y="148.13" width="31.21" height="33.11" transform="translate(-35.4 290.17) rotate(-84.17)"/></clipPath><clipPath id="clip-path-5" transform="translate(-1.08 -3.37)"><rect class="cls-1" x="177.3" y="101.24" width="31.21" height="33.11" transform="translate(56.12 297.74) rotate(-84.17)"/></clipPath><clipPath id="clip-path-6" transform="translate(-1.08 -3.37)"><rect class="cls-1" x="109.3" y="9.99" width="31.21" height="33.11" transform="translate(85.81 148.1) rotate(-84.17)"/></clipPath><clipPath id="clip-path-7" transform="translate(-1.08 -3.37)"><rect class="cls-1" x="119.53" y="68.54" width="31.21" height="33.11" transform="translate(36.76 210.89) rotate(-84.17)"/></clipPath><clipPath id="clip-path-8" transform="translate(-1.08 -3.37)"><rect class="cls-1" x="91.24" y="113.72" width="31.21" height="33.11" transform="translate(-33.6 223.33) rotate(-84.17)"/></clipPath><clipPath id="clip-path-9" transform="translate(-1.08 -3.37)"><rect class="cls-1" x="56.22" y="0.66" width="31.21" height="33.11" transform="translate(47.41 86.91) rotate(-84.17)"/></clipPath><clipPath id="clip-path-10" transform="translate(-1.08 -3.37)"><rect class="cls-1" x="61.77" y="71.41" width="31.21" height="33.11" transform="translate(-17.99 156) rotate(-84.17)"/></clipPath><clipPath id="clip-path-11" transform="translate(-1.08 -3.37)"><rect class="cls-1" x="20.11" y="141.04" width="31.21" height="33.11" transform="translate(-124.68 177.11) rotate(-84.17)"/></clipPath><clipPath id="clip-path-12" transform="translate(-1.08 -3.37)"><rect class="cls-1" x="171.35" y="24.14" width="31.21" height="33.11" transform="translate(127.48 222.55) rotate(-84.17)"/></clipPath></defs><title>Peppers</title><g id="Layer_2" data-name="Layer 2"><g id="Peppers"><g id="Artwork_4" data-name="Artwork 4"><g class="cls-2"><rect class="cls-3" x="80.09" y="174.4" width="27.69" height="14.98" transform="translate(-94.56 96.14) rotate(-38.96)"/></g></g><g id="Artwork_4-2" data-name="Artwork 4"><g class="cls-4"><rect class="cls-3" x="2.71" y="117.29" width="27.69" height="14.98" transform="translate(-75.85 34.79) rotate(-38.96)"/></g></g><g id="Artwork_4-3" data-name="Artwork 4"><g class="cls-5"><rect class="cls-3" x="14.2" y="51.66" width="27.69" height="14.98" transform="translate(-32.03 27.41) rotate(-38.96)"/></g></g><g id="Artwork_4-4" data-name="Artwork 4"><g class="cls-6"><rect class="cls-3" x="129.11" y="157.2" width="27.69" height="14.98" transform="matrix(0.84, -0.55, 0.55, 0.84, -67.85, 101.53)"/></g></g><g id="Artwork_4-5" data-name="Artwork 4"><g class="cls-7"><rect class="cls-3" x="179.06" y="110.31" width="27.69" height="14.98" transform="matrix(0.84, -0.55, 0.55, 0.84, -34.1, 121.2)"/></g></g><g id="Artwork_4-6" data-name="Artwork 4"><g class="cls-8"><rect class="cls-3" x="111.06" y="19.05" width="27.69" height="14.98" transform="matrix(0.84, -0.55, 0.55, 0.84, 4.72, 69.2)"/></g></g><g id="Artwork_4-7" data-name="Artwork 4"><g class="cls-9"><rect class="cls-3" x="121.3" y="77.6" width="27.69" height="14.98" transform="matrix(0.84, -0.55, 0.55, 0.84, -25.62, 84.32)"/></g></g><g id="Artwork_4-8" data-name="Artwork 4"><g class="cls-10"><rect class="cls-3" x="93.01" y="122.78" width="27.69" height="14.98" transform="matrix(0.84, -0.55, 0.55, 0.84, -54.91, 76.2)"/></g></g><g id="Artwork_4-9" data-name="Artwork 4"><g class="cls-11"><rect class="cls-3" x="57.98" y="9.72" width="27.69" height="14.98" transform="matrix(0.84, -0.55, 0.55, 0.84, 1.19, 38.68)"/></g></g><g id="Artwork_4-10" data-name="Artwork 4"><g class="cls-12"><rect class="cls-3" x="63.53" y="80.47" width="27.69" height="14.98" transform="matrix(0.84, -0.55, 0.55, 0.84, -36.57, 53.21)"/></g></g><g id="Artwork_4-11" data-name="Artwork 4"><g class="cls-13"><rect class="cls-3" x="21.88" y="150.1" width="27.69" height="14.98" transform="matrix(0.84, -0.55, 0.55, 0.84, -81.4, 41.77)"/></g></g><g id="Artwork_4-12" data-name="Artwork 4"><g class="cls-14"><rect class="cls-3" x="173.12" y="33.21" width="27.69" height="14.98" transform="matrix(0.84, -0.55, 0.55, 0.84, 7.07, 105.42)"/></g></g></g></g></svg>