<svg xmlns="http://www.w3.org/2000/svg" viewBox="0 0 208.13 192.65"><defs><style>.cls-1{fill:#e9e340;}</style></defs><title>Pineapple</title><g id="Layer_2" data-name="Layer 2"><g id="Pineapple"><path class="cls-1" d="M0,134q4-17.46,7.93-34.91l16.35-.69q2.53,15.41,5,30.81Z"/><path class="cls-1" d="M14.67,75.39q4-17.46,7.93-34.91L39,39.8q2.52,15.39,5,30.8Z"/><path class="cls-1" d="M69.05,119.17q14.34-10.71,28.7-21.4l12.88,10.1q-8.09,13.35-16.16,26.7Z"/><path class="cls-1" d="M106.34,0l35.14,6.84,1.19,16.32-30.62,6Z"/><path class="cls-1" d="M73.69,148.84q-5.94,16.89-11.86,33.77L45.5,181.43,44,150.25Z"/><path class="cls-1" d="M110.63,64.13l28.7-21.4,12.88,10.1q-8.09,13.35-16.16,26.7Z"/><path class="cls-1" d="M54.38,32.16l28.7-21.39L96,20.87,79.8,47.57Z"/><path class="cls-1" d="M142.56,177.25l28.71-21.4L184.14,166q-8.07,13.35-16.16,26.7Z"/><path class="cls-1" d="M178.8,78.93q4-17.46,7.93-34.91l16.35-.68q2.53,15.39,5,30.8Z"/><path class="cls-1" d="M137.54,128.69q4-17.44,7.94-34.91l16.35-.68,5,30.8Z"/></g></g></svg>