<svg xmlns="http://www.w3.org/2000/svg" viewBox="0 0 209.84 205.17"><defs><style>.cls-1{fill:#af6b15;}</style></defs><title>Sausage</title><g id="Layer_2" data-name="Layer 2"><g id="Sausage"><ellipse class="cls-1" cx="10.9" cy="88.43" rx="7.5" ry="8.92"/><ellipse class="cls-1" cx="12.03" cy="88.72" rx="8.63" ry="6.37"/><ellipse class="cls-1" cx="14.54" cy="91.39" rx="6.12" ry="5.29"/><path class="cls-1" d="M12,87.16c0,2.81-2.69,5.09-6,5.09S0,90,0,87.16s2.69-5.1,6-5.1S12,84.35,12,87.16Z"/><ellipse class="cls-1" cx="20.31" cy="147.31" rx="7.5" ry="8.92"/><ellipse class="cls-1" cx="21.44" cy="147.59" rx="8.63" ry="6.37"/><ellipse class="cls-1" cx="23.95" cy="150.26" rx="6.12" ry="5.29"/><path class="cls-1" d="M21.44,146c0,2.82-2.69,5.1-6,5.1s-6-2.28-6-5.1,2.69-5.09,6-5.09S21.44,143.22,21.44,146Z"/><ellipse class="cls-1" cx="79.77" cy="143.77" rx="7.5" ry="8.92"/><ellipse class="cls-1" cx="80.9" cy="144.05" rx="8.63" ry="6.37"/><ellipse class="cls-1" cx="83.41" cy="146.72" rx="6.12" ry="5.29"/><path class="cls-1" d="M80.9,142.49c0,2.82-2.69,5.1-6,5.1s-6-2.28-6-5.1,2.69-5.09,6-5.09S80.9,139.68,80.9,142.49Z"/><ellipse class="cls-1" cx="57.78" cy="172.72" rx="7.5" ry="8.92"/><ellipse class="cls-1" cx="58.91" cy="173.01" rx="8.63" ry="6.37"/><ellipse class="cls-1" cx="61.43" cy="175.68" rx="6.12" ry="5.29"/><path class="cls-1" d="M58.91,171.45c0,2.81-2.69,5.09-6,5.09s-6-2.28-6-5.09,2.7-5.1,6-5.1S58.91,168.64,58.91,171.45Z"/><ellipse class="cls-1" cx="41.89" cy="118.62" rx="7.5" ry="8.92"/><ellipse class="cls-1" cx="43.02" cy="118.9" rx="8.63" ry="6.37"/><ellipse class="cls-1" cx="45.54" cy="121.57" rx="6.12" ry="5.29"/><path class="cls-1" d="M43,117.34c0,2.82-2.69,5.1-6,5.1s-6-2.28-6-5.1,2.69-5.1,6-5.1S43,114.53,43,117.34Z"/><ellipse class="cls-1" cx="81.68" cy="105.2" rx="7.5" ry="8.92"/><ellipse class="cls-1" cx="82.81" cy="105.48" rx="8.63" ry="6.37"/><ellipse class="cls-1" cx="85.32" cy="108.16" rx="6.12" ry="5.29"/><path class="cls-1" d="M82.81,103.93c0,2.81-2.69,5.09-6,5.09s-6-2.28-6-5.09,2.69-5.1,6-5.1S82.81,101.11,82.81,103.93Z"/><ellipse class="cls-1" cx="24.62" cy="46.95" rx="7.5" ry="8.92"/><ellipse class="cls-1" cx="25.76" cy="47.24" rx="8.63" ry="6.37"/><ellipse class="cls-1" cx="28.27" cy="49.91" rx="6.12" ry="5.29"/><path class="cls-1" d="M25.76,45.68c0,2.81-2.7,5.09-6,5.09s-6-2.28-6-5.09,2.69-5.1,6-5.1S25.76,42.87,25.76,45.68Z"/><ellipse class="cls-1" cx="47.45" cy="73.56" rx="7.5" ry="8.92"/><ellipse class="cls-1" cx="48.58" cy="73.84" rx="8.63" ry="6.37"/><ellipse class="cls-1" cx="51.09" cy="76.51" rx="6.12" ry="5.29"/><path class="cls-1" d="M48.58,72.28c0,2.82-2.69,5.1-6,5.1s-6-2.28-6-5.1,2.69-5.1,6-5.1S48.58,69.47,48.58,72.28Z"/><ellipse class="cls-1" cx="61.43" cy="41.2" rx="7.5" ry="8.92"/><ellipse class="cls-1" cx="62.56" cy="41.48" rx="8.63" ry="6.37"/><ellipse class="cls-1" cx="65.07" cy="44.15" rx="6.12" ry="5.29"/><path class="cls-1" d="M62.56,39.92c0,2.82-2.69,5.1-6,5.1s-6-2.28-6-5.1,2.69-5.09,6-5.09S62.56,37.11,62.56,39.92Z"/><ellipse class="cls-1" cx="61.99" cy="8.92" rx="7.5" ry="8.92"/><ellipse class="cls-1" cx="63.12" cy="9.2" rx="8.63" ry="6.37"/><ellipse class="cls-1" cx="65.64" cy="11.87" rx="6.12" ry="5.29"/><path class="cls-1" d="M63.12,7.64c0,2.82-2.69,5.1-6,5.1s-6-2.28-6-5.1,2.7-5.09,6-5.09S63.12,4.83,63.12,7.64Z"/><ellipse class="cls-1" cx="102.97" cy="72.28" rx="7.5" ry="8.92"/><ellipse class="cls-1" cx="104.11" cy="72.56" rx="8.63" ry="6.37"/><ellipse class="cls-1" cx="106.62" cy="75.23" rx="6.12" ry="5.29"/><path class="cls-1" d="M104.11,71c0,2.82-2.7,5.1-6,5.1s-6-2.28-6-5.1,2.69-5.09,6-5.09S104.11,68.19,104.11,71Z"/><ellipse class="cls-1" cx="120.07" cy="196.25" rx="7.5" ry="8.92"/><ellipse class="cls-1" cx="121.2" cy="196.53" rx="8.63" ry="6.37"/><ellipse class="cls-1" cx="123.71" cy="199.2" rx="6.12" ry="5.29"/><path class="cls-1" d="M121.2,195c0,2.81-2.69,5.09-6,5.09s-6-2.28-6-5.09,2.69-5.1,6-5.1S121.2,192.16,121.2,195Z"/><ellipse class="cls-1" cx="157.49" cy="172.72" rx="7.5" ry="8.92"/><ellipse class="cls-1" cx="158.62" cy="173.01" rx="8.63" ry="6.37"/><ellipse class="cls-1" cx="161.14" cy="175.68" rx="6.12" ry="5.29"/><path class="cls-1" d="M158.62,171.45c0,2.81-2.69,5.09-6,5.09s-6-2.28-6-5.09,2.69-5.1,6-5.1S158.62,168.64,158.62,171.45Z"/><ellipse class="cls-1" cx="198.37" cy="137.68" rx="7.5" ry="8.92"/><ellipse class="cls-1" cx="199.5" cy="137.97" rx="8.63" ry="6.37"/><ellipse class="cls-1" cx="202.02" cy="140.64" rx="6.12" ry="5.29"/><path class="cls-1" d="M199.5,136.41c0,2.81-2.69,5.09-6,5.09s-6-2.28-6-5.09,2.7-5.1,6-5.1S199.5,133.6,199.5,136.41Z"/><ellipse class="cls-1" cx="124.28" cy="122.93" rx="7.5" ry="8.92"/><ellipse class="cls-1" cx="125.41" cy="123.22" rx="8.63" ry="6.37"/><ellipse class="cls-1" cx="127.92" cy="125.89" rx="6.12" ry="5.29"/><path class="cls-1" d="M125.41,121.66c0,2.81-2.69,5.09-6,5.09s-6-2.28-6-5.09,2.69-5.1,6-5.1S125.41,118.85,125.41,121.66Z"/><ellipse class="cls-1" cx="120.63" cy="157.08" rx="7.5" ry="8.92"/><ellipse class="cls-1" cx="121.77" cy="157.36" rx="8.63" ry="6.37"/><ellipse class="cls-1" cx="124.28" cy="160.03" rx="6.12" ry="5.29"/><path class="cls-1" d="M121.77,155.8c0,2.82-2.7,5.1-6,5.1s-6-2.28-6-5.1,2.69-5.09,6-5.09S121.77,153,121.77,155.8Z"/><ellipse class="cls-1" cx="165.56" cy="140.64" rx="7.5" ry="8.92"/><ellipse class="cls-1" cx="166.69" cy="140.92" rx="8.63" ry="6.37"/><ellipse class="cls-1" cx="169.2" cy="143.59" rx="6.12" ry="5.29"/><path class="cls-1" d="M166.69,139.36c0,2.82-2.69,5.1-6,5.1s-6-2.28-6-5.1,2.69-5.09,6-5.09S166.69,136.55,166.69,139.36Z"/><ellipse class="cls-1" cx="143.3" cy="72.28" rx="7.5" ry="8.92"/><ellipse class="cls-1" cx="144.44" cy="72.56" rx="8.63" ry="6.37"/><ellipse class="cls-1" cx="146.95" cy="75.23" rx="6.12" ry="5.29"/><path class="cls-1" d="M144.44,71c0,2.82-2.7,5.1-6,5.1s-6-2.28-6-5.1,2.69-5.09,6-5.09S144.44,68.19,144.44,71Z"/><ellipse class="cls-1" cx="113.95" cy="20.11" rx="7.5" ry="8.92"/><ellipse class="cls-1" cx="115.08" cy="20.39" rx="8.63" ry="6.37"/><ellipse class="cls-1" cx="117.59" cy="23.07" rx="6.12" ry="5.29"/><path class="cls-1" d="M115.08,18.84c0,2.81-2.69,5.09-6,5.09s-6-2.28-6-5.09,2.69-5.1,6-5.1S115.08,16,115.08,18.84Z"/><ellipse class="cls-1" cx="175.89" cy="50.77" rx="7.5" ry="8.92"/><ellipse class="cls-1" cx="177.02" cy="51.06" rx="8.63" ry="6.37"/><ellipse class="cls-1" cx="179.54" cy="53.73" rx="6.12" ry="5.29"/><path class="cls-1" d="M177,49.5c0,2.81-2.69,5.09-6,5.09s-6-2.28-6-5.09,2.7-5.1,6-5.1S177,46.69,177,49.5Z"/><ellipse class="cls-1" cx="145.22" cy="29.03" rx="7.5" ry="8.92"/><ellipse class="cls-1" cx="146.35" cy="29.31" rx="8.63" ry="6.37"/><ellipse class="cls-1" cx="148.86" cy="31.98" rx="6.12" ry="5.29"/><path class="cls-1" d="M146.35,27.75c0,2.82-2.69,5.1-6,5.1s-6-2.28-6-5.1,2.69-5.09,6-5.09S146.35,24.94,146.35,27.75Z"/><ellipse class="cls-1" cx="200.07" cy="89.49" rx="7.5" ry="8.92"/><ellipse class="cls-1" cx="201.2" cy="89.78" rx="8.63" ry="6.37"/><ellipse class="cls-1" cx="203.71" cy="92.45" rx="6.12" ry="5.29"/><path class="cls-1" d="M201.2,88.22c0,2.81-2.69,5.1-6,5.1s-6-2.29-6-5.1,2.69-5.1,6-5.1S201.2,85.41,201.2,88.22Z"/></g></g></svg>